<?xml version="1.0" encoding="UTF-8"?>
<svg version="1.1" xmlns="http://www.w3.org/2000/svg" width="685" height="611">
<path d="M0 0 C3.01516379 2.02133885 5.4571209 4.4245894 8 7 C8.99 7.78375 9.98 8.5675 11 9.375 C13.4520702 12.59334214 13.76883871 14.46176364 13.57421875 18.44140625 C12.451811 23.44261087 9.7020243 27.69766964 7 32 C7.66 32.66 8.32 33.32 9 34 C9.25 37 9.25 37 9 40 C8.34 40.66 7.68 41.32 7 42 C4.27130593 41.96712417 1.7033382 41.43602229 -1 41 C-1.20625 41.721875 -1.4125 42.44375 -1.625 43.1875 C-3.3400311 46.69551817 -5.55854811 49.18503552 -9 51 C-10.1034375 51.10183594 -11.206875 51.20367187 -12.34375 51.30859375 C-16.79308136 52.14997372 -18.86339081 54.09718067 -21.8125 57.3125 C-22.28880859 57.79912109 -22.76511719 58.28574219 -23.25585938 58.78710938 C-25.69549114 61.33654173 -27.65378781 63.72395762 -29 67 C-27.84912119 68.6429372 -27.84912119 68.6429372 -26 70 C-23.4099956 70.03101082 -23.4099956 70.03101082 -20.625 69.5 C-15.34665106 68.85850977 -15.34665106 68.85850977 -11.9375 70.25 C-9.7315843 72.24243999 -8.21294198 73.98033551 -7.59375 76.9453125 C-7.30175175 83.73427176 -9.58901789 87.92579147 -14 93 C-17.79241469 96.19361237 -22.09147932 97.17290288 -27 97 C-31.05763553 95.49717203 -32.58772494 94.61841259 -35 91 C-35.23046875 88.87890625 -35.23046875 88.87890625 -35.1875 86.5625 C-35.18105469 85.80066406 -35.17460938 85.03882813 -35.16796875 84.25390625 C-35.00451771 82.06062143 -34.60116513 80.11129193 -34 78 C-35.32 77.01 -36.64 76.02 -38 75 C-39.93984166 77.08119446 -41.87692294 79.16484547 -43.8125 81.25 C-44.35970703 81.83652344 -44.90691406 82.42304688 -45.47070312 83.02734375 C-48.14780313 85.91536679 -50.72508832 88.77521291 -53 92 C-52.34 92.66 -51.68 93.32 -51 94 C-48.97948252 93.94437167 -48.97948252 93.94437167 -46.75 93.5 C-42.59735374 92.95342377 -39.82470684 93.04317325 -36 95 C-32.95871079 97.80118743 -32.08704524 99.31607313 -31.5625 103.4375 C-32.28713896 109.33813156 -34.9454091 113.71371819 -39 118 C-43.73384378 121.19259232 -48.42104485 122.07880348 -54 121 C-57.65420788 118.48773209 -58.76372678 116.91133957 -59.875 112.625 C-60.00210551 108.93894015 -59.66536162 105.62252437 -59 102 C-62.81406085 101.60139648 -62.81406085 101.60139648 -64.67578125 103.25 C-65.21589844 103.8275 -65.75601562 104.405 -66.3125 105 C-66.91707031 105.639375 -67.52164062 106.27875 -68.14453125 106.9375 C-70.54630475 109.60726086 -72.90608287 112.3106319 -75.25 115.03125 C-76.93798286 116.93023071 -78.68769734 118.72005988 -80.5 120.5 C-82.93389732 122.89053167 -85.21355559 125.35046262 -87.4375 127.9375 C-90.47679651 131.46634763 -93.71016847 134.73005027 -97.02734375 137.99609375 C-99.57337829 140.58246151 -101.92021557 143.3153528 -104.28515625 146.06640625 C-106.50169397 148.56569138 -108.87162281 150.88281884 -111.25390625 153.22265625 C-113.06477643 155.06593574 -114.75321354 156.97822799 -116.4375 158.9375 C-119.47679651 162.46634763 -122.71016847 165.73005027 -126.02734375 168.99609375 C-128.56955147 171.57857406 -130.91335209 174.30664285 -133.2734375 177.0546875 C-135.54668251 179.61594545 -137.97944658 181.9922043 -140.421875 184.390625 C-142.45508542 186.46409701 -144.2475974 188.68682856 -146 191 C-144.34866505 195.40072251 -142.26079832 199.51007175 -140.125 203.6875 C-128.9868099 225.86648347 -123.00450455 250.4380632 -130.8046875 274.875 C-134.87585446 285.51857376 -140.68254187 294.18663024 -149 302 C-147.42536172 305.81077687 -145.0319723 308.20188327 -142.12117004 311.08569336 C-141.37025834 311.8338766 -141.37025834 311.8338766 -140.6041767 312.59717464 C-138.9267554 314.26618693 -137.2423101 315.92792648 -135.55786133 317.58984375 C-134.35352409 318.78543107 -133.14966299 319.98149818 -131.94624329 321.17800903 C-129.35485996 323.75290504 -126.76055266 326.32480603 -124.16407204 328.89456177 C-120.06186598 332.95543867 -115.9688711 337.02551309 -111.87760925 341.09741211 C-100.24285002 352.67455897 -88.59812577 364.24161842 -76.9387207 375.79394531 C-70.49882116 382.17485948 -64.06783719 388.56462 -57.64659137 394.96430683 C-53.57853964 399.01768175 -49.49963095 403.05970605 -45.4125191 407.09385681 C-42.87749022 409.60123221 -40.35292436 412.11893602 -37.83128166 414.63976669 C-36.65646418 415.80999878 -35.47732172 416.97590664 -34.29367828 418.13721085 C-32.68337704 419.71832893 -31.08904178 421.31396452 -29.49787903 422.91430664 C-28.59988492 423.80509415 -27.70189081 424.69588165 -26.77668476 425.61366272 C-25 428 -25 428 -25.06238842 430.14305115 C-26.61254411 433.21314956 -29.10077638 435.40813559 -31.5625 437.75 C-32.08263672 438.25660156 -32.60277344 438.76320313 -33.13867188 439.28515625 C-34.41910084 440.53034405 -35.70867554 441.76611502 -37 443 C-35.50031846 446.56161792 -33.45272986 448.70536745 -30.6484375 451.3359375 C-29.79765625 452.15320313 -28.946875 452.97046875 -28.0703125 453.8125 C-26.27321747 455.52104252 -24.46849217 457.22159496 -22.65625 458.9140625 C-21.80804687 459.73390625 -20.95984375 460.55375 -20.0859375 461.3984375 C-19.3026709 462.13755371 -18.5194043 462.87666992 -17.71240234 463.63818359 C-15.53509433 466.6412172 -15.51310542 468.36797896 -16 472 C-18 474 -18 474 -20.71924782 474.48565674 C-25.24493351 473.81570984 -27.42892629 471.38587439 -30.49203491 468.22949219 C-31.11786142 467.60879223 -31.74368793 466.98809227 -32.38847888 466.34858322 C-34.48493922 464.2620174 -36.55921609 462.15470721 -38.63427734 460.046875 C-40.1313915 458.54806869 -41.62982754 457.05058177 -43.12948608 455.55432129 C-47.20039731 451.48513437 -51.25252095 447.39768835 -55.30158567 443.30677795 C-59.53495339 439.03594976 -63.78527302 434.7820619 -68.03384399 430.52636719 C-76.07806237 422.46348636 -84.10686174 414.38543035 -92.13026869 406.30184555 C-101.26471351 397.10037969 -110.41616354 387.91590753 -119.56910014 378.73284149 C-138.39841792 359.84077689 -157.20621943 340.92741256 -176 322 C-182.95124222 326.56732261 -186.94380008 331.00376785 -191 338.25 C-193.42000119 342.39047079 -195.18045322 344.69470608 -200 346 C-204.10485889 346 -205.62423036 345.30896614 -208.8125 342.6875 C-210.87933058 340.148251 -211.39230352 339.06461989 -212 336 C-220.83948843 335.28713803 -226.60780236 337.55422431 -233.57421875 343.01953125 C-236.14315171 345.26587232 -238.58518728 347.58915901 -241 350 C-241.70125 350.68964844 -242.4025 351.37929688 -243.125 352.08984375 C-253.30817956 362.77024887 -262.05665951 378.51584366 -262.1875 393.5625 C-262.20167969 394.30628906 -262.21585938 395.05007813 -262.23046875 395.81640625 C-261.95770454 398.40073157 -261.47798319 399.85425333 -260 402 C-257.7129493 403.44987187 -257.7129493 403.44987187 -255.0625 404.5625 C-249.11276708 407.23506044 -249.11276708 407.23506044 -247 410 C-246.41028825 414.57026609 -246.13884218 416.78250101 -248.8125 420.5625 C-252.20174673 423.46894805 -256.20265724 425.59456918 -260.0859375 427.765625 C-267.58072887 433.51230149 -271.23193429 441.01513699 -274.4375 449.6875 C-283.88626993 473.87877378 -298.42812887 495.98121503 -322.9375 506.75 C-333.02709473 510.97009559 -342.93564806 512.51528893 -353.8125 512.375 C-354.95178955 512.36557373 -356.0910791 512.35614746 -357.26489258 512.34643555 C-365.85313277 512.19301954 -373.71495906 511.39195594 -382 509 C-383.20011719 508.6596875 -384.40023437 508.319375 -385.63671875 507.96875 C-407.1029926 501.32923374 -426.19528106 489.86857702 -443 475 C-443.51900879 474.54125488 -444.03801758 474.08250977 -444.57275391 473.60986328 C-471.4283233 449.73037281 -494.96289781 416.66725843 -499 380 C-500.16354648 357.34506563 -498.18227628 335.35011147 -482.625 317.5625 C-481.10801864 316.01704288 -479.56623531 314.495519 -478 313 C-477.22914063 312.23300781 -476.45828125 311.46601563 -475.6640625 310.67578125 C-464.01470333 299.57307485 -449.26214494 292.1774122 -434.36743164 286.37792969 C-423.40771332 282.08711345 -417.26499859 277.72671794 -411.359375 267.3125 C-409.57123881 264.27061315 -407.85680428 262.0903446 -405 260 C-401.05857015 259.36655592 -398.91403761 259.52121839 -395.375 261.375 C-392.47520469 264.58003692 -390.93074727 267.91375709 -389.2109375 271.85546875 C-388.13025877 274.32913489 -388.13025877 274.32913489 -385 275 C-369.57592806 276.67094113 -354.44778188 268.23462406 -342.59375 259.15234375 C-333.6861304 251.7606293 -323.26300487 242.31171917 -322.0625 230.0625 C-322.12041027 227.89050981 -322.12041027 227.89050981 -323 226 C-324.91748333 224.35828955 -326.84386863 223.26614423 -329.08203125 222.10546875 C-331 221 -331 221 -332.5625 218.5625 C-333.12268386 215.28142311 -332.99764265 213.19245647 -332 210 C-329.21987594 206.41274315 -326.08260976 204.43126146 -322.1875 202.25 C-316.66171871 199.08530966 -312.93452907 194.9456371 -309 190 C-314.3101239 183.53476077 -320.207565 177.71366212 -326.16186523 171.8515625 C-327.28779249 170.73903381 -328.41343062 169.62621243 -329.5388031 168.51312256 C-331.95053933 166.12814618 -334.36352893 163.74444754 -336.77728081 161.36151123 C-340.59322824 157.59269076 -344.40146258 153.81614206 -348.20777893 150.03759766 C-348.85150104 149.39861479 -349.49522314 148.75963192 -350.15845197 148.10128593 C-351.47388661 146.79545119 -352.7892904 145.48958537 -354.10466397 144.18368912 C-362.95807012 135.39410596 -371.81520188 126.6085135 -380.69897461 117.84960938 C-386.70366435 111.92921059 -392.69414245 105.99484223 -398.66835362 100.04368401 C-401.82745024 96.89787855 -404.993394 93.75972163 -408.17678642 90.63848877 C-411.16619681 87.70719336 -414.13650081 84.75783682 -417.09310341 81.79346466 C-418.18145449 80.70891499 -419.27669541 79.63122951 -420.37915802 78.56102753 C-421.88282431 77.09937077 -423.35982158 75.6150946 -424.83274841 74.12255859 C-425.6665525 73.29742767 -426.50035658 72.47229675 -427.35942745 71.62216187 C-429 69 -429 69 -428.76045322 65.17984009 C-428.38402888 63.60581924 -428.38402888 63.60581924 -428 62 C-425.1875 61.375 -425.1875 61.375 -422 61 C-420.515 61.99 -420.515 61.99 -419 63 C-415.95245449 62.65170908 -413.19136219 61.75740866 -410.25 60.875 C-402.61944035 59.00308368 -396.52232456 60.80778027 -389.67757034 64.34407616 C-384.82842269 67.34299614 -381.02366413 71.32586081 -377.05224609 75.38012695 C-376.1060461 76.32774066 -375.15873712 77.27424811 -374.2104187 78.21974182 C-371.66258895 80.76614864 -369.1303736 83.3275701 -366.60086775 85.89216256 C-363.9460606 88.57842226 -361.27689704 91.25034232 -358.60928345 93.9238739 C-353.57043386 98.97820672 -348.54445614 104.04513764 -343.52308047 109.11682433 C-337.80137065 114.89460019 -332.06529955 120.65802848 -326.32803226 126.42034972 C-314.53607179 138.26444318 -302.76209914 150.12624979 -291 162 C-287.74535733 160.45375894 -285.53798248 158.75812889 -282.9375 156.25 C-267.50406383 142.3296458 -248.89224277 140.21699727 -229.00537109 140.82519531 C-212.49957452 141.78524002 -196.03794343 148.82376975 -182.41796875 157.91015625 C-180.09904887 159.26845875 -180.09904887 159.26845875 -177.9375 158.41015625 C-175.76947958 156.83222204 -173.79049691 155.18845558 -171.8125 153.375 C-170.93464844 152.570625 -170.05679687 151.76625 -169.15234375 150.9375 C-163.13825626 145.3480975 -157.16911348 139.71071622 -151.19921875 134.07421875 C-147.76414443 130.83438844 -144.32030542 127.60394379 -140.875 124.375 C-140.21749756 123.75874756 -139.55999512 123.14249512 -138.88256836 122.50756836 C-131.31429421 115.4170351 -123.72995349 108.34373229 -116.14550781 101.27050781 C-114.28435209 99.53466926 -112.42337749 97.79863682 -110.5625 96.0625 C-109.64138428 95.20325928 -109.64138428 95.20325928 -108.70166016 94.32666016 C-104.7481557 90.63692874 -100.80287997 86.93856228 -96.86108398 83.23632812 C-89.6216666 76.43778099 -82.34164495 69.68812731 -75 63 C-75.66 62.34 -76.32 61.68 -77 61 C-77.66 61.33 -78.32 61.66 -79 62 C-83.63213493 62.55512815 -86.98172127 62.6364242 -91 60.125 C-93.50458563 57.46387776 -93.94606375 56.53936255 -94.3125 52.875 C-93.81896425 46.75515675 -91.61089254 42.10655789 -86.9375 38.0625 C-82.18879721 34.72830442 -77.66874677 34.13477023 -72 35 C-68.34579212 37.51226791 -67.23627322 39.08866043 -66.125 43.375 C-65.99789449 47.06105985 -66.33463838 50.37747563 -67 54 C-62.95864413 52.40069566 -60.32092848 49.51339591 -57.375 46.4375 C-52.23986486 41.11993243 -52.23986486 41.11993243 -50 40 C-50.33 39.01 -50.66 38.02 -51 37 C-51.73605469 37.10699219 -52.47210937 37.21398437 -53.23046875 37.32421875 C-61.27173169 38.31211499 -61.27173169 38.31211499 -65.0625 36.6875 C-68.95298941 33.29900922 -68.95298941 33.29900922 -69.3359375 30.86328125 C-69.43154936 24.61982659 -68.73836652 21.05184664 -65 16 C-61.63980097 12.72822726 -58.58721109 11.00918644 -54 10 C-49.71457806 10.07518284 -47.58232584 10.59113292 -44.0625 13.0625 C-40.80187649 17.70641833 -41.60151265 21.60907592 -42.5 27 C-42.665 27.66 -42.83 28.32 -43 29 C-41.68 29 -40.36 29 -39 29 C-38.93683594 28.41992188 -38.87367188 27.83984375 -38.80859375 27.2421875 C-37.89569845 21.41887641 -36.29795284 18.62488262 -31.65625 14.99609375 C-30 14 -30 14 -28 14 C-28.20625 12.72125 -28.4125 11.4425 -28.625 10.125 C-28.9765625 7.9453125 -28.9765625 7.9453125 -29 6 C-27 4 -27 4 -24.0625 3.75 C-21 4 -21 4 -18 6 C-17.3709375 5.566875 -16.741875 5.13375 -16.09375 4.6875 C-6.72238536 -1.40953241 -6.72238536 -1.40953241 0 0 Z M-5 10 C-12.26 14.95 -19.52 19.9 -27 25 C-24.96986589 29.06026821 -22.57604446 31.65457376 -19.375 34.75 C-18.859375 35.25660156 -18.34375 35.76320313 -17.8125 36.28515625 C-16.54616661 37.52803902 -15.2736856 38.76465276 -14 40 C-10.27972256 38.75990752 -9.75763119 37.54609549 -7.64453125 34.30859375 C-7.02255859 33.36435547 -6.40058594 32.42011719 -5.75976562 31.44726562 C-5.11716797 30.45404297 -4.47457031 29.46082031 -3.8125 28.4375 C-2.83120117 26.94186523 -2.83120117 26.94186523 -1.83007812 25.41601562 C-0.21272603 22.94866828 1.3968893 20.4766147 3 18 C2.04578192 16.85073734 1.08647955 15.70569459 0.125 14.5625 C-0.40867187 13.92441406 -0.94234375 13.28632812 -1.4921875 12.62890625 C-2.9222757 10.89194996 -2.9222757 10.89194996 -5 10 Z M-54 21 C-55.65 22.65 -57.3 24.3 -59 26 C-58.01 26.495 -58.01 26.495 -57 27 C-55.35 25.35 -53.7 23.7 -52 22 C-52.66 21.67 -53.32 21.34 -54 21 Z M-32 37 C-32.44844853 41.12612615 -32.44844853 41.12612615 -29.5 43.75 C-28.675 44.4925 -27.85 45.235 -27 46 C-26.01 45.67 -25.02 45.34 -24 45 C-24.95421808 43.85073734 -25.91352045 42.70569459 -26.875 41.5625 C-27.40867187 40.92441406 -27.94234375 40.28632812 -28.4921875 39.62890625 C-29.9222757 37.89194996 -29.9222757 37.89194996 -32 37 Z M-78 45 C-79.65 46.65 -81.3 48.3 -83 50 C-82.67 50.66 -82.34 51.32 -82 52 C-80.35 50.35 -78.7 48.7 -77 47 C-77.33 46.34 -77.66 45.68 -78 45 Z M-42 47 C-43.32 48.32 -44.64 49.64 -46 51 C-43.36 53.64 -40.72 56.28 -38 59 C-36.68 58.01 -35.36 57.02 -34 56 C-34.47205119 51.75153925 -36.88877522 49.73180712 -40 47 C-40.66 47 -41.32 47 -42 47 Z M-54 58 C-55.65 59.65 -57.3 61.3 -59 63 C-56.03 65.97 -53.06 68.94 -50 72 C-48.35 70.35 -46.7 68.7 -45 67 C-45.93274109 65.87105124 -46.87140122 64.74699124 -47.8125 63.625 C-48.33457031 62.99851562 -48.85664062 62.37203125 -49.39453125 61.7265625 C-51.08225739 59.7778952 -51.08225739 59.7778952 -54 58 Z M-67 70 C-68.35827971 71.64639965 -69.69254251 73.31295807 -71 75 C-68.03 77.97 -65.06 80.94 -62 84 C-60.35 82.35 -58.7 80.7 -57 79 C-58.47613985 77.49702124 -59.95599157 75.99768715 -61.4375 74.5 C-62.26121094 73.6646875 -63.08492187 72.829375 -63.93359375 71.96875 C-65.64498098 69.88503469 -65.64498098 69.88503469 -67 70 Z M-409 71 C-409 74.45665176 -408.61368545 74.86186799 -406.3125 77.25 C-403.85322306 79.66217129 -403.85322306 79.66217129 -400.5 80 C-399.675 79.67 -398.85 79.34 -398 79 C-396.3603125 78.4740625 -396.3603125 78.4740625 -394.6875 77.9375 C-393.800625 77.628125 -392.91375 77.31875 -392 77 C-395.95484248 72.4996301 -395.95484248 72.4996301 -401.3828125 70.90234375 C-402.74019531 70.91974609 -402.74019531 70.91974609 -404.125 70.9375 C-405.03507812 70.94652344 -405.94515625 70.95554687 -406.8828125 70.96484375 C-407.93082031 70.98224609 -407.93082031 70.98224609 -409 71 Z M-21 80 C-23.21168225 82.94236782 -23.21168225 82.94236782 -25 86 C-21.18586998 84.8321734 -21.18586998 84.8321734 -18.6875 81.875 C-18.460625 81.25625 -18.23375 80.6375 -18 80 C-18.99 80 -19.98 80 -21 80 Z M-81.6640625 83.50390625 C-82.31117188 84.18324219 -82.95828125 84.86257812 -83.625 85.5625 C-86.34719074 88.35852955 -89.10042126 91.02192564 -92.0625 93.5625 C-95.27302136 96.32242187 -98.25357247 99.23091015 -101.21875 102.25 C-103.71896185 104.70634849 -106.37680516 106.96309368 -109.03125 109.25 C-110.93023071 110.93798286 -112.72005988 112.68769734 -114.5 114.5 C-116.89053167 116.93389732 -119.35046262 119.21355559 -121.9375 121.4375 C-124.74576347 123.85617779 -127.39970593 126.35899683 -130 129 C-133.2215855 132.27202128 -136.58592145 135.29316055 -140.06640625 138.28515625 C-141.95494597 139.96004299 -143.73155648 141.69947587 -145.5 143.5 C-147.89053167 145.93389732 -150.35046262 148.21355559 -152.9375 150.4375 C-155.74576347 152.85617779 -158.39970593 155.35899683 -161 158 C-164.2215855 161.27202128 -167.58592145 164.29316055 -171.06640625 167.28515625 C-173.56431556 169.5004738 -175.88024989 171.8689817 -178.21875 174.25 C-180.71896185 176.70634849 -183.37680516 178.96309368 -186.03125 181.25 C-187.93023071 182.93798286 -189.72005988 184.68769734 -191.5 186.5 C-193.89053167 188.93389732 -196.35046262 191.21355559 -198.9375 193.4375 C-201.74576347 195.85617779 -204.39970593 198.35899683 -207 201 C-210.21644538 204.26680069 -213.57390574 207.2844731 -217.05078125 210.26953125 C-219.63636884 212.5649527 -222.03550217 215.02242212 -224.45703125 217.48828125 C-226.1845509 219.18081316 -228.00012772 220.64008685 -230 222 C-228.54254576 225.36335594 -226.68882146 227.54534005 -224.0859375 230.109375 C-223.32539063 230.86347656 -222.56484375 231.61757813 -221.78125 232.39453125 C-220.9871875 233.17183594 -220.193125 233.94914063 -219.375 234.75 C-218.57320313 235.54277344 -217.77140625 236.33554687 -216.9453125 237.15234375 C-214.96797154 239.10614493 -212.98611091 241.05512103 -211 243 C-207.78632963 241.4844458 -205.95581068 240.06803732 -203.6875 237.3125 C-201.38530014 234.58814836 -199.0507004 231.99338129 -196.5 229.5 C-194.06610268 227.10946833 -191.78644441 224.64953738 -189.5625 222.0625 C-186.52320349 218.53365237 -183.28983153 215.26994973 -179.97265625 212.00390625 C-177.42662171 209.41753849 -175.07978443 206.6846472 -172.71484375 203.93359375 C-170.4995262 201.43568444 -168.1310183 199.11975011 -165.75 196.78125 C-163.91757513 194.91610326 -162.20646865 192.98072254 -160.5 191 C-158.2544206 188.39352391 -155.95448488 185.91065479 -153.5 183.5 C-151.06610268 181.10946833 -148.78644441 178.64953738 -146.5625 176.0625 C-143.52320349 172.53365237 -140.28983153 169.26994973 -136.97265625 166.00390625 C-134.42662171 163.41753849 -132.07978443 160.6846472 -129.71484375 157.93359375 C-127.49830603 155.43430862 -125.12837719 153.11718116 -122.74609375 150.77734375 C-120.93522357 148.93406426 -119.24678646 147.02177201 -117.5625 145.0625 C-114.52320349 141.53365237 -111.28983153 138.26994973 -107.97265625 135.00390625 C-105.42662171 132.41753849 -103.07978443 129.6846472 -100.71484375 126.93359375 C-98.4995262 124.43568444 -96.1310183 122.11975011 -93.75 119.78125 C-91.91757513 117.91610326 -90.20646865 115.98072254 -88.5 114 C-86.2544206 111.39352391 -83.95448488 108.91065479 -81.5 106.5 C-74.27001752 99.47607304 -74.27001752 99.47607304 -69 91 C-70.45217676 89.49403892 -71.91192861 87.99537896 -73.375 86.5 C-74.18710937 85.6646875 -74.99921875 84.829375 -75.8359375 83.96875 C-78.40578738 81.63083603 -79.04729794 81.13898992 -81.6640625 83.50390625 Z M-394 89 C-364.3 118.7 -334.6 148.4 -304 179 C-300.59548229 177.86516076 -300.3994436 177.44722063 -298.8125 174.4375 C-298.214375 173.303125 -297.61625 172.16875 -297 171 C-307.44828574 160.48157113 -317.90519973 149.97178609 -328.37239265 139.47217083 C-333.23251075 134.59659701 -338.08978783 129.71825516 -342.94042969 124.83325195 C-347.62143065 120.11910727 -352.31028008 115.41286695 -357.00399399 110.71137428 C-358.79357328 108.91625133 -360.58050967 107.11848965 -362.36474991 105.31805992 C-364.86399104 102.79704718 -367.37245868 100.28557442 -369.88330078 97.77612305 C-370.61913895 97.02949905 -371.35497711 96.28287506 -372.1131134 95.5136261 C-376.30422937 91.34756707 -380.19762483 87.60969119 -386.265625 86.63671875 C-390.59884514 86.59429502 -390.59884514 86.59429502 -394 89 Z M-44 104 C-45.65 105.65 -47.3 107.3 -49 109 C-48.67 109.66 -48.34 110.32 -48 111 C-46.35 109.35 -44.7 107.7 -43 106 C-43.33 105.34 -43.66 104.68 -44 104 Z M-279.234375 166.8515625 C-281.42327943 169.05157474 -281.42327943 169.05157474 -281 173 C-279.39306971 175.18900447 -279.39306971 175.18900447 -277.14453125 177.30957031 C-275.88322388 178.5704245 -275.88322388 178.5704245 -274.59643555 179.85675049 C-273.67773682 180.75480408 -272.75903809 181.65285767 -271.8125 182.578125 C-270.88026611 183.5046991 -269.94803223 184.43127319 -268.98754883 185.38592529 C-266.51055916 187.84765175 -264.02179297 190.29713016 -261.53039551 192.7442627 C-258.98961397 195.24410638 -256.46013618 197.75533009 -253.9296875 200.265625 C-248.96413889 205.18829075 -243.98605825 210.09811154 -239 215 C-235.72454168 213.74579754 -233.38323137 212.75597054 -230.94921875 210.20703125 C-230.4195752 209.66256348 -229.88993164 209.1180957 -229.34423828 208.55712891 C-228.52415283 207.6935376 -228.52415283 207.6935376 -227.6875 206.8125 C-226.53448003 205.62702802 -225.37954095 204.44341949 -224.22265625 203.26171875 C-223.66852051 202.69501465 -223.11438477 202.12831055 -222.54345703 201.54443359 C-220.06715899 199.06656877 -217.4258458 196.80521631 -214.7578125 194.5390625 C-212.30723913 192.39344937 -210.05861231 190.06874586 -207.77734375 187.74609375 C-205.93406426 185.93522357 -204.02177201 184.24678646 -202.0625 182.5625 C-198.43975266 179.44721922 -195.08494309 176.13029621 -191.76171875 172.69921875 C-190 171 -190 171 -187 169 C-187 168.34 -187 167.68 -187 167 C-214.12555369 147.06682797 -253.4560023 143.74830395 -279.234375 166.8515625 Z M-290 179 C-290.88791631 180.1411908 -291.73616038 181.31346106 -292.5625 182.5 C-293.01753906 183.1496875 -293.47257813 183.799375 -293.94140625 184.46875 C-294.29074219 184.9740625 -294.64007813 185.479375 -295 186 C-293.55419034 189.31613882 -291.75170208 191.49185728 -289.19287109 194.03417969 C-288.0218837 195.20494049 -288.0218837 195.20494049 -286.82723999 196.39935303 C-285.98448517 197.23178528 -285.14173035 198.06421753 -284.2734375 198.921875 C-283.41062164 199.78186096 -282.54780579 200.64184692 -281.65884399 201.52789307 C-278.90221971 204.2733231 -276.13872201 207.0117169 -273.375 209.75 C-271.50475143 211.61021783 -269.63495411 213.47088946 -267.765625 215.33203125 C-263.1823064 219.89329945 -258.59332522 224.44881011 -254 229 C-250.64405806 227.7367158 -248.36709704 226.74084921 -246 224 C-247.47015937 220.60342594 -249.3636216 218.38829682 -251.97485352 215.78222656 C-252.79232559 214.96167786 -253.60979767 214.14112915 -254.45204163 213.29571533 C-255.33540695 212.41953552 -256.21877228 211.54335571 -257.12890625 210.640625 C-258.48616066 209.28405792 -258.48616066 209.28405792 -259.87083435 207.90008545 C-261.7825816 205.99135801 -263.69609988 204.08464383 -265.61303711 202.18115234 C-268.07531461 199.73592436 -270.53089738 197.28410449 -272.9842844 194.82995987 C-275.32136715 192.49321346 -277.66268557 190.16072449 -280.00390625 187.828125 C-280.88929581 186.94384827 -281.77468536 186.05957153 -282.68690491 185.14849854 C-283.50122482 184.34055847 -284.31554474 183.53261841 -285.15454102 182.70019531 C-286.23470238 181.62575165 -286.23470238 181.62575165 -287.33668518 180.52960205 C-288.74606029 178.88718312 -288.74606029 178.88718312 -290 179 Z M-301 197 C-302.3055298 198.50894955 -303.59381367 200.03282736 -304.875 201.5625 C-309.61520817 206.92862938 -314.79728075 210.49865193 -321 214 C-320.236875 214.7425 -319.47375 215.485 -318.6875 216.25 C-314.11332521 220.93055095 -312.38511616 223.76284043 -311.9453125 230.29296875 C-312.19867394 242.83436024 -320.47510526 253.14566342 -329.03955078 261.57836914 C-344.06718632 275.68946133 -363.34328151 285.88310476 -384.20703125 285.30078125 C-388.9478681 284.92483435 -392.50772762 284.35152589 -396 281 C-398.00053937 278.13009044 -399.5805263 275.19381582 -401 272 C-402.5878683 274.11391057 -404.16855492 276.23109565 -405.7265625 278.3671875 C-406.35304688 279.19476563 -406.97953125 280.02234375 -407.625 280.875 C-408.23601562 281.69742188 -408.84703125 282.51984375 -409.4765625 283.3671875 C-416.11753171 290.29600057 -424.59126647 293.79182462 -433.3125 297.4375 C-447.71438003 303.6258732 -461.17967279 310.32543644 -472 322 C-472.79664063 322.78890625 -472.79664063 322.78890625 -473.609375 323.59375 C-485.74910976 336.27064116 -489.55178167 352.65129842 -489.49023438 369.70605469 C-489.02135544 385.76801716 -484.14057983 400.73443965 -477 415 C-476.45472656 416.11632812 -475.90945313 417.23265625 -475.34765625 418.3828125 C-470.05799865 428.71320264 -463.30077754 438.00409939 -456 447 C-453.08872086 445.67290638 -450.91349432 444.20705944 -448.57788086 442.02709961 C-447.92361115 441.41727737 -447.26934143 440.80745514 -446.59524536 440.17915344 C-424.43946623 419.10071094 -406.62125792 397.62602856 -390.76025391 371.48535156 C-386.71632592 364.85251092 -382.36430789 358.42471333 -378 352 C-372.85170256 356.30627256 -368.04247928 360.82311931 -363.31640625 365.5859375 C-362.61603745 366.28772125 -361.91566864 366.989505 -361.19407654 367.71255493 C-358.98116973 369.93101136 -356.77178584 372.15293815 -354.5625 374.375 C-353.05296686 375.88955466 -351.54320343 377.40387985 -350.03320312 378.91796875 C-346.35280298 382.60933099 -342.67528043 386.30354069 -339 390 C-342.45108103 393.82066134 -346.3950571 396.37497916 -350.70703125 399.10546875 C-351.45845901 399.5874321 -352.20988678 400.06939545 -352.98408508 400.56596375 C-357.34667213 403.35307014 -361.74562767 406.07328085 -366.17324829 408.75552368 C-392.37831972 424.70072169 -413.08974072 444.68310661 -434 467 C-432.14172854 471.17068954 -429.43437221 473.20540119 -425.75 475.75 C-424.81498657 476.40415894 -424.81498657 476.40415894 -423.86108398 477.0715332 C-408.91144736 487.37042221 -392.73819392 495.83675315 -375 500 C-374.24775146 500.17732666 -373.49550293 500.35465332 -372.72045898 500.53735352 C-353.2123442 504.82856584 -334.17999919 502.14903867 -317 492 C-301.03959491 481.35972994 -292.3499903 464.5861589 -284.94140625 447.453125 C-278.58088665 432.76086348 -273.11727779 423.26438504 -259 415 C-261.13898426 413.3459126 -263.04819062 411.97710945 -265.5 410.8125 C-269.19233803 408.13555493 -270.82839158 405.31051656 -272 401 C-274.15206734 380.82708596 -265.56577819 363.35177907 -253.34375 347.78125 C-244.53652545 337.3300102 -234.08023975 327.12866617 -220 325 C-214.88300915 324.75741673 -210.6293791 325.06124666 -206.5625 328.375 C-205.716875 329.24125 -204.87125 330.1075 -204 331 C-203.00117578 332.0011744 -202.00145879 333.00146092 -201 334 C-200.41605469 332.96552734 -200.41605469 332.96552734 -199.8203125 331.91015625 C-195.4832673 324.6251195 -190.55857893 319.34451603 -184 314 C-188.37029366 308.77051256 -192.96911804 303.89710045 -197.8046875 299.09765625 C-198.5286673 298.3750914 -199.25264709 297.65252655 -199.99856567 296.9080658 C-202.28835265 294.62383078 -204.58160993 292.34311688 -206.875 290.0625 C-208.43773161 288.50478961 -210.0002339 286.94684913 -211.5625 285.38867188 C-215.3723531 281.58978398 -219.18505379 277.79377287 -223 274 C-226.84792271 275.77860887 -228.98328536 277.93507135 -231.8125 281.125 C-232.77233418 282.19630205 -233.73334086 283.26655437 -234.6953125 284.3359375 C-235.21641602 284.91698242 -235.73751953 285.49802734 -236.27441406 286.09667969 C-239.53271902 289.69058821 -242.86407279 293.21641895 -246.1875 296.75 C-247.19550659 297.82338623 -247.19550659 297.82338623 -248.22387695 298.91845703 C-249.81528435 300.61290222 -251.40745256 302.30662649 -253 304 C-258.06711299 299.75789864 -262.81223371 295.32282911 -267.46484375 290.6328125 C-268.14301651 289.95322479 -268.82118927 289.27363708 -269.51991272 288.57345581 C-271.66149141 286.42632998 -273.79954529 284.27573373 -275.9375 282.125 C-277.39885589 280.65862227 -278.86044226 279.1924742 -280.32226562 277.7265625 C-283.88417935 274.15369 -287.44293865 270.57770316 -291 267 C-290.06528855 265.89333619 -289.12821634 264.78866612 -288.19018555 263.68481445 C-287.40782784 262.76174248 -287.40782784 262.76174248 -286.60966492 261.82002258 C-284.18482352 259.07829289 -281.52910702 256.63498365 -278.8125 254.1875 C-277.97972534 253.42808105 -277.97972534 253.42808105 -277.13012695 252.65332031 C-275.42348289 251.0984265 -273.7118684 249.54913766 -272 248 C-270.90323917 247.0017487 -269.80687287 246.00306372 -268.7109375 245.00390625 C-266.1443843 242.66511286 -263.57352194 240.33112609 -261 238 C-262.41765075 234.7797803 -264.12335806 232.62827427 -266.60766602 230.14941406 C-267.34505508 229.40894836 -268.08244415 228.66848267 -268.84217834 227.90557861 C-269.63804855 227.11689392 -270.43391876 226.32820923 -271.25390625 225.515625 C-272.06995834 224.70003113 -272.88601044 223.88443726 -273.72679138 223.04412842 C-275.45017989 221.3237585 -277.1759957 219.6058172 -278.90405273 217.89013672 C-281.56097285 215.25151663 -284.20976042 212.60493838 -286.85742188 209.95703125 C-288.53077785 208.28858882 -290.20459025 206.62060402 -291.87890625 204.953125 C-292.67680069 204.15634338 -293.47469513 203.35956177 -294.29676819 202.53863525 C-295.0310051 201.8107782 -295.765242 201.08292114 -296.52172852 200.33300781 C-297.49530052 199.3651535 -297.49530052 199.3651535 -298.48854065 198.37774658 C-299.78231282 196.88772321 -299.78231282 196.88772321 -301 197 Z M-156 200 C-157.45078085 201.46850933 -158.83624327 203.00192639 -160.1875 204.5625 C-162.92415252 207.67571591 -165.66045477 210.72767801 -168.625 213.625 C-171.67660015 216.62034946 -174.46018481 219.79307166 -177.25 223.03125 C-179.4792029 225.53910326 -181.8570875 227.86856808 -184.25 230.21875 C-186.70149585 232.71402256 -188.95519032 235.36418374 -191.23046875 238.01953125 C-193.52233684 240.58460216 -195.99187507 242.93072232 -198.51953125 245.26171875 C-200.44061849 247.32996272 -200.44061849 247.32996272 -202 252 C-187.81 266.19 -173.62 280.38 -159 295 C-148.58470645 289.79235322 -143.70875397 279.76436362 -140.03515625 269.234375 C-134.05169185 249.05052273 -139.28704642 226.56796376 -148.875 208.32421875 C-151.27135402 204.05499671 -151.27135402 204.05499671 -154 200 C-154.66 200 -155.32 200 -156 200 Z M-242.125 233.5 C-243.07375 234.325 -244.0225 235.15 -245 236 C-243.51346494 239.46629835 -241.54277649 241.69022036 -238.8671875 244.328125 C-238.06152344 245.12734375 -237.25585938 245.9265625 -236.42578125 246.75 C-235.58402344 247.575 -234.74226563 248.4 -233.875 249.25 C-232.60076172 250.51070312 -232.60076172 250.51070312 -231.30078125 251.796875 C-229.20495077 253.86915683 -227.10459287 255.93662393 -225 258 C-221.67364118 256.47427344 -220.04436998 255.06655496 -218 252 C-219.45241736 248.66765426 -221.2850086 246.45774394 -223.84375 243.890625 C-224.59527344 243.13652344 -225.34679687 242.38242187 -226.12109375 241.60546875 C-226.90613281 240.82816406 -227.69117188 240.05085937 -228.5 239.25 C-229.28503906 238.45722656 -230.07007813 237.66445313 -230.87890625 236.84765625 C-232.00619141 235.72423828 -232.00619141 235.72423828 -233.15625 234.578125 C-233.84525391 233.89137695 -234.53425781 233.20462891 -235.24414062 232.49707031 C-238.24799436 229.93594252 -239.46668049 231.18841782 -242.125 233.5 Z M-260 250.4375 C-261.17006658 251.53569597 -262.34064561 252.6333462 -263.51171875 253.73046875 C-264.09614746 254.28009277 -264.68057617 254.8297168 -265.28271484 255.39599609 C-269.13262957 258.99195 -273.0725416 262.48922455 -277 266 C-272.32533663 271.62303757 -267.32234333 276.79741554 -262.125 281.9375 C-261.34125 282.71673828 -260.5575 283.49597656 -259.75 284.29882812 C-257.83561419 286.20154085 -255.91891966 288.10186171 -254 290 C-253.31035156 289.3090625 -252.62070312 288.618125 -251.91015625 287.90625 C-249.88309383 285.87847357 -247.84792897 283.85917958 -245.80859375 281.84375 C-244.68486393 280.72919883 -243.56116645 279.61461505 -242.4375 278.5 C-241.59155273 277.66662109 -241.59155273 277.66662109 -240.72851562 276.81640625 C-237.58774819 273.69400588 -234.69298228 270.5291895 -232 267 C-233.48229451 263.56394819 -235.4295174 261.31298409 -238.0625 258.671875 C-238.85914063 257.87265625 -239.65578125 257.0734375 -240.4765625 256.25 C-241.30929687 255.425 -242.14203125 254.6 -243 253.75 C-243.83273437 252.90953125 -244.66546875 252.0690625 -245.5234375 251.203125 C-246.32007813 250.4090625 -247.11671875 249.615 -247.9375 248.796875 C-248.66839844 248.06823242 -249.39929688 247.33958984 -250.15234375 246.58886719 C-254.32145703 243.00369419 -256.84175165 247.43050443 -260 250.4375 Z M-211 259 C-212.7143618 260.95927063 -214.38405168 262.95880212 -216 265 C-214.55419034 268.31613882 -212.75170208 270.49185728 -210.19287109 273.03417969 C-209.41221283 273.81468689 -208.63155457 274.59519409 -207.82723999 275.39935303 C-206.98448517 276.23178528 -206.14173035 277.06421753 -205.2734375 277.921875 C-204.41062164 278.78186096 -203.54780579 279.64184692 -202.65884399 280.52789307 C-199.90221971 283.2733231 -197.13872201 286.0117169 -194.375 288.75 C-192.50475143 290.61021783 -190.63495411 292.47088946 -188.765625 294.33203125 C-184.1823064 298.89329945 -179.59332522 303.44881011 -175 308 C-171.06326356 306.68775452 -168.77280706 305.08089673 -166 302 C-171.56609293 296.3876375 -177.13751467 290.78064359 -182.71588707 285.18048859 C-185.30577097 282.58015198 -187.89375543 279.97798129 -190.47753906 277.37158203 C-192.96947726 274.85796836 -195.46622018 272.34922241 -197.96641922 269.84382629 C-198.92108788 268.88545233 -199.87398982 267.92531522 -200.8251152 266.96342468 C-202.15399745 265.62009843 -203.48967707 264.28350662 -204.82568359 262.94726562 C-205.58513275 262.18337524 -206.34458191 261.41948486 -207.12704468 260.63244629 C-208.8371965 258.7809844 -208.8371965 258.7809844 -211 259 Z M-162.5625 312.5 C-163.20316406 312.9640625 -163.84382813 313.428125 -164.50390625 313.90625 C-164.99761719 314.2671875 -165.49132812 314.628125 -166 315 C-164.55802042 318.30027875 -162.77180823 320.47555514 -160.22885132 323.01165771 C-159.05095284 324.19368019 -159.05095284 324.19368019 -157.84925842 325.39958191 C-156.98683029 326.25481949 -156.12440216 327.11005707 -155.23583984 327.99121094 C-153.87477867 329.35271019 -153.87477867 329.35271019 -152.48622131 330.74171448 C-150.00120797 333.22730138 -147.51007876 335.70667578 -145.01780653 338.18498135 C-142.41304986 340.77723116 -139.81396002 343.37515004 -137.21426392 345.97247314 C-132.29196785 350.88855432 -127.36459597 355.79951523 -122.43538058 360.7086575 C-116.82327399 366.2984054 -111.21684885 371.89383688 -105.61089396 377.48975325 C-94.08023972 388.99950528 -82.54247086 400.50209796 -71 412 C-67.25979502 410.31847927 -65.43865652 408.30960527 -63 405 C-75.36616266 392.61051128 -87.73516081 380.22386146 -100.10757351 367.84061432 C-105.85180084 362.09122341 -111.59508462 356.34089575 -117.33618164 350.58837891 C-122.33818374 345.57643187 -127.34192155 340.56622547 -132.34778076 335.55813074 C-135.00002925 332.90457482 -137.65138045 330.25013574 -140.30065727 327.59361267 C-143.25299274 324.63326709 -146.20919532 321.67681341 -149.16577148 318.72070312 C-150.05049637 317.83238297 -150.93522125 316.94406281 -151.84675598 316.02882385 C-153.04783493 314.8298069 -153.04783493 314.8298069 -154.2731781 313.60656738 C-154.97281898 312.90600471 -155.67245985 312.20544205 -156.39330196 311.48365021 C-159.08755248 308.99573695 -159.83038925 310.51301037 -162.5625 312.5 Z M-377 368 C-378.33494376 369.73819224 -379.57839082 371.54682631 -380.78125 373.37890625 C-381.15142242 373.93840973 -381.52159485 374.49791321 -381.90298462 375.07437134 C-383.10847284 376.89956752 -384.30421696 378.73093406 -385.5 380.5625 C-386.31817042 381.80488961 -387.13701808 383.0468335 -387.95654297 384.28833008 C-389.5716133 386.73664826 -391.18330848 389.18712942 -392.79199219 391.63964844 C-395.54708578 395.83736629 -398.33321612 400.01412201 -401.125 404.1875 C-401.89864969 405.34751476 -402.67211527 406.50765235 -403.4453125 407.66796875 C-403.95835937 408.43753906 -404.47140625 409.20710938 -405 410 C-404.07347299 411.17539996 -403.13336613 412.34010577 -402.1875 413.5 C-401.66542969 414.1496875 -401.14335937 414.799375 -400.60546875 415.46875 C-399.00795167 417.34509128 -399.00795167 417.34509128 -396 417 C-393.85762526 415.76802758 -391.83218559 414.50036253 -389.78515625 413.125 C-389.17417587 412.72224854 -388.5631955 412.31949707 -387.93370056 411.90454102 C-385.97231979 410.60941338 -384.0174049 409.30487672 -382.0625 408 C-380.78101142 407.15172031 -379.49911424 406.30405757 -378.21679688 405.45703125 C-374.47182835 402.98037789 -370.73518513 400.49137461 -367 398 C-365.79414807 397.19655455 -364.58825709 396.39316771 -363.38232422 395.58984375 C-360.58758531 393.72750562 -357.79345825 391.86425829 -355 390 C-356.48229451 386.56394819 -358.4295174 384.31298409 -361.0625 381.671875 C-361.85914063 380.87265625 -362.65578125 380.0734375 -363.4765625 379.25 C-364.30929687 378.425 -365.14203125 377.6 -366 376.75 C-366.83273437 375.90953125 -367.66546875 375.0690625 -368.5234375 374.203125 C-369.32007813 373.4090625 -370.11671875 372.615 -370.9375 371.796875 C-371.66839844 371.06823242 -372.39929688 370.33958984 -373.15234375 369.58886719 C-374.84659142 367.78266279 -374.84659142 367.78266279 -377 368 Z M-57.41015625 414.3125 C-57.95542969 414.869375 -58.50070312 415.42625 -59.0625 416 C-59.61035156 416.556875 -60.15820312 417.11375 -60.72265625 417.6875 C-61.14417969 418.120625 -61.56570313 418.55375 -62 419 C-60.67879172 421.93230193 -59.25361803 423.98664899 -56.9609375 426.234375 C-56.38085938 426.80800781 -55.80078125 427.38164062 -55.203125 427.97265625 C-54.29820312 428.85244141 -54.29820312 428.85244141 -53.375 429.75 C-52.76398438 430.35199219 -52.15296875 430.95398438 -51.5234375 431.57421875 C-50.02011376 433.05405305 -48.51065144 434.52764676 -47 436 C-43.2047869 434.50902342 -41.38957269 432.24299151 -39 429 C-41.6418167 426.32932797 -44.2891042 423.66414667 -46.9375 421 C-47.69224609 420.236875 -48.44699219 419.47375 -49.22460938 418.6875 C-49.94326172 417.965625 -50.66191406 417.24375 -51.40234375 416.5 C-52.06741943 415.8296875 -52.73249512 415.159375 -53.41772461 414.46875 C-55.42652987 412.52435712 -55.42652987 412.52435712 -57.41015625 414.3125 Z M-413.48695374 420.36669922 C-414.12426926 421.00623535 -414.76158478 421.64577148 -415.41821289 422.3046875 C-416.13888443 423.02543457 -416.85955597 423.74618164 -417.60206604 424.48876953 C-418.38436081 425.27622559 -419.16665558 426.06368164 -419.97265625 426.875 C-420.77029892 427.67405762 -421.56794159 428.47311523 -422.38975525 429.29638672 C-424.9496807 431.8619326 -427.50611693 434.43092482 -430.0625 437 C-431.79208986 438.73460222 -433.52190456 440.46898028 -435.25195312 442.203125 C-439.50391943 446.46614741 -443.75302219 450.73200817 -448 455 C-446.35 456.98 -444.7 458.96 -443 461 C-438.01407125 456.82222235 -433.33295716 452.46872723 -428.75390625 447.8515625 C-427.76994118 446.86547501 -427.76994118 446.86547501 -426.76609802 445.85946655 C-424.69584732 443.78367138 -422.62912349 441.70440573 -420.5625 439.625 C-419.14932138 438.2067992 -417.73591206 436.78882824 -416.32226562 435.37109375 C-412.87883935 431.91671223 -409.43856901 428.4592163 -406 425 C-407.64169528 422.97945196 -409.30911778 420.97956942 -411 419 C-412.21389617 418.88721528 -412.21389617 418.88721528 -413.48695374 420.36669922 Z " fill="#8F3049" transform="translate(579,47)"/>
<path d="M0 0 C5.22948744 4.37029366 10.10289955 8.96911804 14.90234375 13.8046875 C15.98619102 14.8906572 15.98619102 14.8906572 17.0919342 15.99856567 C19.37616922 18.28835265 21.65688312 20.58160993 23.9375 22.875 C25.49521039 24.43773161 27.05315087 26.0002339 28.61132812 27.5625 C32.41021602 31.3723531 36.20622713 35.18505379 40 39 C36.13869295 43.17294429 32.03525904 46.14554218 27.234375 49.1640625 C26.48766541 49.64130768 25.74095581 50.11855286 24.97161865 50.61026001 C20.61340888 53.38540828 16.21798336 56.09494436 11.80328369 58.7789917 C-13.97357808 74.52152382 -34.42598557 93.99676944 -55 116 C-53.67351512 119.97945463 -51.12268351 121.38715818 -47.8125 123.6875 C-47.184646 124.12811768 -46.55679199 124.56873535 -45.90991211 125.02270508 C-30.8839551 135.40683183 -14.78561465 143.66844809 3 148 C3.79019531 148.21398437 4.58039063 148.42796875 5.39453125 148.6484375 C14.35939642 150.81507742 23.82249384 150.67137314 33 151 C30.11794991 152.63525016 29.18631857 153.01791525 25.75 152.6875 C20.93137808 153.08905183 19.55742741 154.92003796 16.48046875 158.46875 C11.28501678 161.67602114 4.80730973 160.33082582 -0.90234375 159.00390625 C-2.58618239 158.54291248 -4.26457445 158.06164721 -5.9375 157.5625 C-6.84282471 157.29518066 -7.74814941 157.02786133 -8.6809082 156.75244141 C-29.73401973 150.25114963 -48.54655739 138.55777271 -65 124 C-65.51900879 123.54125488 -66.03801758 123.08250977 -66.57275391 122.60986328 C-83.03042406 107.97599826 -96.4423834 91.34408666 -107 72 C-107.35674805 71.36481445 -107.71349609 70.72962891 -108.08105469 70.07519531 C-114.01279215 59.28084416 -115.12931811 50.14593288 -113 38 C-111.93359375 35.484375 -111.93359375 35.484375 -111 34 C-107.57050037 36.67715926 -107.03981303 39.77590441 -105.9375 43.875 C-101.37456214 59.53053441 -93.8748006 74.05930893 -84 87 C-83.37480469 87.845625 -82.74960938 88.69125 -82.10546875 89.5625 C-80.7524176 91.38769312 -79.38653925 93.20021768 -78 95 C-75.13598634 93.68946212 -72.97160716 92.26245496 -70.66967773 90.11889648 C-70.03542374 89.52908997 -69.40116974 88.93928345 -68.74769592 88.331604 C-46.87350173 67.55521872 -29.45196768 46.25770857 -13.77246094 20.49755859 C-11.05468721 16.05178797 -8.21625262 11.69468889 -5.3203125 7.36328125 C-4.89724823 6.72988327 -4.47418396 6.09648529 -4.03829956 5.44389343 C-1.14613513 1.14613513 -1.14613513 1.14613513 0 0 Z M1 17 C-0.33494376 18.73819224 -1.57839082 20.54682631 -2.78125 22.37890625 C-3.15142242 22.93840973 -3.52159485 23.49791321 -3.90298462 24.07437134 C-5.10847284 25.89956752 -6.30421696 27.73093406 -7.5 29.5625 C-8.31817042 30.80488961 -9.13701808 32.0468335 -9.95654297 33.28833008 C-11.5716133 35.73664826 -13.18330848 38.18712942 -14.79199219 40.63964844 C-17.54708578 44.83736629 -20.33321612 49.01412201 -23.125 53.1875 C-23.89864969 54.34751476 -24.67211527 55.50765235 -25.4453125 56.66796875 C-25.95835937 57.43753906 -26.47140625 58.20710938 -27 59 C-26.07347299 60.17539996 -25.13336613 61.34010577 -24.1875 62.5 C-23.66542969 63.1496875 -23.14335937 63.799375 -22.60546875 64.46875 C-21.00795167 66.34509128 -21.00795167 66.34509128 -18 66 C-15.85762526 64.76802758 -13.83218559 63.50036253 -11.78515625 62.125 C-11.17417587 61.72224854 -10.5631955 61.31949707 -9.93370056 60.90454102 C-7.97231979 59.60941338 -6.0174049 58.30487672 -4.0625 57 C-2.78101142 56.15172031 -1.49911424 55.30405757 -0.21679688 54.45703125 C3.52817165 51.98037789 7.26481487 49.49137461 11 47 C12.20585193 46.19655455 13.41174291 45.39316771 14.61767578 44.58984375 C17.41241469 42.72750562 20.20654175 40.86425829 23 39 C21.51770549 35.56394819 19.5704826 33.31298409 16.9375 30.671875 C16.14085937 29.87265625 15.34421875 29.0734375 14.5234375 28.25 C13.69070312 27.425 12.85796875 26.6 12 25.75 C11.16726562 24.90953125 10.33453125 24.0690625 9.4765625 23.203125 C8.67992187 22.4090625 7.88328125 21.615 7.0625 20.796875 C6.33160156 20.06823242 5.60070312 19.33958984 4.84765625 18.58886719 C3.15340858 16.78266279 3.15340858 16.78266279 1 17 Z M-35.48695374 69.36669922 C-36.12426926 70.00623535 -36.76158478 70.64577148 -37.41821289 71.3046875 C-38.13888443 72.02543457 -38.85955597 72.74618164 -39.60206604 73.48876953 C-40.38436081 74.27622559 -41.16665558 75.06368164 -41.97265625 75.875 C-42.77029892 76.67405762 -43.56794159 77.47311523 -44.38975525 78.29638672 C-46.9496807 80.8619326 -49.50611693 83.43092482 -52.0625 86 C-53.79208986 87.73460222 -55.52190456 89.46898028 -57.25195312 91.203125 C-61.50391943 95.46614741 -65.75302219 99.73200817 -70 104 C-68.35 105.98 -66.7 107.96 -65 110 C-60.01407125 105.82222235 -55.33295716 101.46872723 -50.75390625 96.8515625 C-49.76994118 95.86547501 -49.76994118 95.86547501 -48.76609802 94.85946655 C-46.69584732 92.78367138 -44.62912349 90.70440573 -42.5625 88.625 C-41.14932138 87.2067992 -39.73591206 85.78882824 -38.32226562 84.37109375 C-34.87883935 80.91671223 -31.43856901 77.4592163 -28 74 C-29.64169528 71.97945196 -31.30911778 69.97956942 -33 68 C-34.21389617 67.88721528 -34.21389617 67.88721528 -35.48695374 69.36669922 Z " fill="#692134" transform="translate(201,398)"/>
<path d="M0 0 C0.99 0.495 0.99 0.495 2 1 C1.84789062 1.57234375 1.69578125 2.1446875 1.5390625 2.734375 C0.97253306 4.95574798 0.97253306 4.95574798 0.7109375 7.078125 C0.00826973 11.62095385 -0.98269807 14.3130599 -4.27734375 17.5703125 C-8.64883076 22.37222284 -10.66077006 27.61371304 -12.9375 33.625 C-22.71966686 58.16684518 -36.89289713 80.74604802 -61.9375 91.75 C-72.43532004 96.14084078 -82.44782542 97.43681267 -93.75 97.1875 C-95.52890625 97.16719727 -95.52890625 97.16719727 -97.34375 97.14648438 C-100.22966693 97.11157409 -103.11457264 97.06254539 -106 97 C-105.23300781 96.39671875 -104.46601563 95.7934375 -103.67578125 95.171875 C-100.90166978 92.98840188 -100.90166978 92.98840188 -98.1875 90.25 C-93.97923239 87.27945816 -92.05267114 87.75551591 -87 88 C-85.66003417 87.34676666 -84.3274256 86.67835352 -83 86 C-81.04905273 85.56923529 -79.08932432 85.17744305 -77.125 84.8125 C-66.63674261 82.46473485 -57.14216947 77.89062415 -49.453125 70.28515625 C-48 69 -48 69 -46 69 C-45.73445313 68.41992188 -45.46890625 67.83984375 -45.1953125 67.2421875 C-43.95984519 64.92467692 -42.55817137 63.13697694 -40.875 61.125 C-33.45781876 51.64324254 -28.63506794 41.33909197 -24 30.3125 C-18.28000031 16.84788476 -12.5990895 8.08287176 0 0 Z " fill="#94314B" transform="translate(318,462)"/>
<path d="M0 0 C4.09968995 2.10799661 6.38804988 4.8270956 8.5 8.875 C9.61783589 15.8614743 7.73631098 21.65175853 5 28 C4.34 28.66 3.68 29.32 3 30 C-0.0572921 29.8048537 -2.26911153 29.46289603 -4.875 27.8125 C-6.55877549 25.09975061 -6.39015561 23.12124489 -6 20 C-5.0206121 18.97980427 -4.02104551 17.97850195 -3 17 C-2.74930087 14.37429296 -2.74930087 14.37429296 -3 12 C-5.30115895 11.19570725 -5.30115895 11.19570725 -8 11 C-10.11361222 12.27166787 -10.11361222 12.27166787 -11.94482422 14.32714844 C-13.05154984 15.45391998 -13.05154984 15.45391998 -14.18063354 16.60345459 C-14.96407135 17.43040833 -15.74750916 18.25736206 -16.5546875 19.109375 C-17.37446075 19.94712463 -18.19423401 20.78487427 -19.03884888 21.64801025 C-21.66553382 24.3348788 -24.27165551 27.04052396 -26.875 29.75 C-29.47276525 32.44351544 -32.074792 35.13228939 -34.68972778 37.80914307 C-36.31740982 39.47622494 -37.93514709 41.15309029 -39.54147339 42.84075928 C-44.31606068 47.74154626 -48.37001779 51.52588982 -55.44140625 52.25 C-61.13855025 51.57851341 -64.05895167 50.22941772 -68 46 C-70.41847048 41.93257238 -70.64639536 37.62052977 -70 33 C-69.04000036 29.45578512 -68.0046418 26.09025011 -66 23 C-63.35546875 21.7109375 -63.35546875 21.7109375 -61 21 C-55.1910828 25.23566879 -55.1910828 25.23566879 -54.375 28.5 C-55 31 -55 31 -57.0625 33.5625 C-59.29699887 35.78752246 -59.29699887 35.78752246 -58.75 38.3125 C-58.5025 38.869375 -58.255 39.42625 -58 40 C-54.99958477 40.28802456 -53.48431779 40.34317187 -50.98301697 38.5708313 C-50.33111893 37.90179779 -49.67922089 37.23276428 -49.00756836 36.54345703 C-48.26006821 35.78912384 -47.51256805 35.03479065 -46.74241638 34.25759888 C-45.94956741 33.43266937 -45.15671844 32.60773987 -44.33984375 31.7578125 C-43.51295547 30.91910614 -42.6860672 30.08039978 -41.8341217 29.21627808 C-39.18984013 26.53072861 -36.56294541 23.82895668 -33.9375 21.125 C-31.3059907 18.43080712 -28.67095227 15.74024666 -26.03016663 13.05514526 C-24.38698457 11.38274106 -22.74959777 9.70461907 -21.11863708 8.02029419 C-20.37428909 7.25965668 -19.6299411 6.49901917 -18.86303711 5.71533203 C-18.21193466 5.04470734 -17.56083221 4.37408264 -16.88999939 3.68313599 C-11.91266412 -0.74942212 -6.4128128 -1.03257155 0 0 Z " fill="#020202" transform="translate(259,321)"/>
<path d="M0 0 C5.80355621 4.80294307 5.80355621 4.80294307 6.2265625 9.046875 C6.25105469 9.99046875 6.27554688 10.9340625 6.30078125 11.90625 C6.35685547 13.30617188 6.35685547 13.30617188 6.4140625 14.734375 C5.34843007 22.04715536 -1.22316179 27.05864644 -6.27734375 31.94140625 C-7.90536547 33.53928822 -9.53295702 35.13760858 -11.16015625 36.73632812 C-13.71856534 39.23878742 -16.28068137 41.73712786 -18.85058594 44.2277832 C-21.33725946 46.64211455 -23.80817406 49.07169443 -26.27734375 51.50390625 C-27.05225159 52.24673355 -27.82715942 52.98956085 -28.62554932 53.75489807 C-29.33338562 54.45590134 -30.04122192 55.1569046 -30.77050781 55.87915039 C-31.39797913 56.48948624 -32.02545044 57.09982208 -32.67193604 57.72865295 C-34.36952967 60.17104636 -34.27224797 61.74464557 -34.01171875 64.65625 C-32.27596226 65.53061418 -32.27596226 65.53061418 -30.01171875 65.65625 C-28.34088056 64.32814785 -26.67442162 62.99452304 -25.01171875 61.65625 C-22.51171875 61.03125 -22.51171875 61.03125 -20.01171875 61.65625 C-18.04746708 63.51825296 -16.61990035 65.45074381 -15.01171875 67.65625 C-15.91921386 70.66295082 -16.43040853 72.27915471 -19.11328125 74.01953125 C-25.93505004 76.58561456 -31.16283848 78.06257164 -38.26171875 75.46875 C-41.95602792 73.03386441 -44.32820502 70.9625576 -45.6171875 66.61328125 C-46.64976537 60.6734026 -45.22089167 56.74781942 -42.01171875 51.65625 C-39.36168567 48.55335406 -36.44849913 45.76598883 -33.4921875 42.95703125 C-31.81423739 41.31988254 -30.13650944 39.68250611 -28.45898438 38.04492188 C-25.81899183 35.4922793 -23.1742443 32.94478319 -20.5246582 30.40209961 C-17.95948863 27.93310317 -15.4126963 25.44626847 -12.8671875 22.95703125 C-12.0652446 22.19860428 -11.2633017 21.44017731 -10.4370575 20.6587677 C-9.34515862 19.58691475 -9.34515862 19.58691475 -8.23120117 18.4934082 C-7.58374435 17.87133987 -6.93628754 17.24927155 -6.26921082 16.60835266 C-4.7210099 14.65482094 -4.7210099 14.65482094 -5.3105011 11.91642761 C-5.65760384 10.79763969 -5.65760384 10.79763969 -6.01171875 9.65625 C-8.38601171 9.40555087 -8.38601171 9.40555087 -11.01171875 9.65625 C-11.48609375 10.15125 -11.96046875 10.64625 -12.44921875 11.15625 C-14.01171875 12.65625 -14.01171875 12.65625 -16.94921875 13.15625 C-20.01171875 12.65625 -20.01171875 12.65625 -22.44921875 10.46875 C-24.01171875 7.65625 -24.01171875 7.65625 -23.88671875 4.96875 C-23.01171875 2.65625 -23.01171875 2.65625 -21.01171875 0.65625 C-14.20696619 -1.94421941 -6.53545783 -4.36543202 0 0 Z " fill="#020202" transform="translate(312.01171875,373.34375)"/>
<path d="M0 0 C0.66 0.33 1.32 0.66 2 1 C1.0409375 2.36125 1.0409375 2.36125 0.0625 3.75 C-1.68661915 6.50618775 -2.40702707 7.93630652 -3 11 C-3.37125 11.845625 -3.7425 12.69125 -4.125 13.5625 C-5.31456447 16.08657081 -5.31456447 16.08657081 -4 19 C-5.40625 21.05859375 -5.40625 21.05859375 -7.5 23.4375 C-16.35456346 34.08774416 -24.06372844 47.32877042 -24.1875 61.5625 C-24.20876953 62.67818359 -24.20876953 62.67818359 -24.23046875 63.81640625 C-23.95770454 66.40073157 -23.47798319 67.85425333 -22 70 C-19.7129493 71.44987187 -19.7129493 71.44987187 -17.0625 72.5625 C-11.11276708 75.23506044 -11.11276708 75.23506044 -9 78 C-8.38793255 82.74352271 -8.12545538 84.82483067 -11 88.6875 C-20.48648649 96 -20.48648649 96 -25 96 C-24.77183594 95.40832031 -24.54367187 94.81664062 -24.30859375 94.20703125 C-23.09219518 90.86329886 -22.05535604 87.81188866 -21.8125 84.25 C-23.20839756 81.60514147 -24.24854029 81.13690259 -26.8125 79.6875 C-30.54918078 77.48708475 -32.67410457 75.64162757 -34.375 71.6171875 C-38.21653663 55.53075285 -32.19490727 40.46996067 -24.09863281 26.78271484 C-17.98456405 16.86161926 -9.79962957 6.53308638 0 0 Z " fill="#76263A" transform="translate(341,379)"/>
<path d="M0 0 C5.24256271 0.94247368 8.36325603 4.70445564 11.96630859 8.36962891 C13.07989243 9.4746022 13.07989243 9.4746022 14.2159729 10.60189819 C15.77799494 12.1598462 17.33250114 13.72536156 18.87988281 15.29785156 C21.24754328 17.69763239 23.64548828 20.06373801 26.04833984 22.42822266 C27.56459024 23.94843805 29.07897827 25.47051371 30.59130859 26.99462891 C31.30789642 27.69907135 32.02448425 28.40351379 32.76278687 29.12930298 C38.19881114 34.72156688 38.19881114 34.72156688 38.9609375 38.9609375 C38.88037109 42.08056641 38.88037109 42.08056641 36.88037109 44.08056641 C34.28417969 44.68457031 34.28417969 44.68457031 30.88037109 44.08056641 C27.7377918 41.85481757 25.11529516 39.15564741 22.41943359 36.41650391 C21.2335817 35.23926254 21.2335817 35.23926254 20.02377319 34.03823853 C18.35741903 32.37596477 16.69860796 30.70609992 15.046875 29.02929688 C12.51453354 26.46484503 9.95181844 23.93393864 7.38427734 21.40478516 C5.76906878 19.78561171 4.15572246 18.164578 2.54443359 16.54150391 C1.77579987 15.78501556 1.00716614 15.02852722 0.21524048 14.24911499 C-4.96994218 8.9241122 -4.96994218 8.9241122 -5.72363281 4.67675781 C-4.82165633 0.79979019 -3.99713895 0.10322866 0 0 Z " fill="#020202" transform="translate(240.11962890625,359.91943359375)"/>
<path d="M0 0 C3.10452978 2.78611647 3.90932799 4.28757704 4.4375 8.4375 C3.71286104 14.33813156 1.0545909 18.71371819 -3 23 C-7.73384378 26.19259232 -12.42104485 27.07880348 -18 26 C-21.60106198 23.52426989 -22.73272264 21.83327649 -24.0625 17.6875 C-23.9682008 12.12384736 -22.12664145 8.32697723 -18.3828125 4.23046875 C-12.54718312 -1.09940609 -7.66602156 -3.26515733 0 0 Z M-8 9 C-9.65 10.65 -11.3 12.3 -13 14 C-12.67 14.66 -12.34 15.32 -12 16 C-10.35 14.35 -8.7 12.7 -7 11 C-7.33 10.34 -7.66 9.68 -8 9 Z " fill="#080203" transform="translate(543,142)"/>
<path d="M0 0 C2.74388927 2.14157211 3.69867786 3.62405112 4.44140625 7.015625 C4.91816315 12.81785789 3.06882305 16.52504795 -0.36328125 21.1171875 C-3.9674944 25.26332292 -7.66416036 26.56561062 -13.00390625 27.0703125 C-16.22230299 26.95694432 -18.3622609 25.75849274 -21 24 C-23.105184 20.842224 -23.25289344 20.04602866 -23.1875 16.4375 C-23.18105469 15.65246094 -23.17460938 14.86742187 -23.16796875 14.05859375 C-23 12 -23 12 -22 10 C-21.34 10 -20.68 10 -20 10 C-19.9175 9.4225 -19.835 8.845 -19.75 8.25 C-18.774018 5.32205399 -17.36488777 3.94755463 -15 2 C-14.01 2 -13.02 2 -12 2 C-12 1.34 -12 0.68 -12 0 C-7.81243095 -1.39585635 -4.25764725 -1.09131031 0 0 Z M-9 10 C-11.21168225 12.94236782 -11.21168225 12.94236782 -13 16 C-9.18586998 14.8321734 -9.18586998 14.8321734 -6.6875 11.875 C-6.460625 11.25625 -6.23375 10.6375 -6 10 C-6.99 10 -7.98 10 -9 10 Z " fill="#090204" transform="translate(567,117)"/>
<path d="M0 0 C5.25995013 -0.2360234 9.28305955 0.47020676 14.25 2.1875 C14.89461182 2.40946045 15.53922363 2.6314209 16.20336914 2.86010742 C21.97116404 4.89122222 27.4857171 7.35616573 33 10 C33 13.63 33 17.26 33 21 C29.59134345 20.31826869 27.31073867 19.84258298 24.28515625 18.51171875 C23.60509521 18.21918213 22.92503418 17.92664551 22.22436523 17.62524414 C21.15424194 17.16106079 21.15424194 17.16106079 20.0625 16.6875 C12.50213886 13.47910107 4.96740685 11.03288828 -3 9 C-3 5.30581799 -1.71820705 3.22163822 0 0 Z " fill="#42121E" transform="translate(356,190)"/>
<path d="M0 0 C0.55009283 5.79154333 -2.14431599 8.60350159 -5.546875 13.03515625 C-15.05222839 24.52331424 -26.36939856 33.79160927 -40 40 C-40.66 40 -41.32 40 -42 40 C-40.45756243 36.06319713 -38.00214034 34.06320347 -34.75 31.4375 C-33.81671875 30.67308594 -32.8834375 29.90867187 -31.921875 29.12109375 C-29 27 -29 27 -25.765625 25.41015625 C-22.75165077 24.15753311 -22.75165077 24.15753311 -21 21 C-21.66 20.01 -22.32 19.02 -23 18 C-5.72 0 -5.72 0 0 0 Z " fill="#681F31" transform="translate(264,287)"/>
<path d="M0 0 C4.00538145 0.24032289 7.15900435 0.73077756 10.4375 3.0625 C13.45042694 6.51634308 13.45042694 6.51634308 13.6875 10 C13.42136164 13.15226097 12.97511248 14.03344261 11 16.6875 C1.51351351 24 1.51351351 24 -3 24 C-2.77183594 23.40832031 -2.54367187 22.81664062 -2.30859375 22.20703125 C-0.32086643 16.74300951 0.28074775 13.60938001 -1.6875 8.0625 C-2.14524942 5.04135382 -1.08272488 2.80234675 0 0 Z " fill="#501726" transform="translate(319,451)"/>
<path d="M0 0 C0 8.16226616 -4.03631365 13.72296473 -9 20 C-13.1795645 22.78637633 -15.14668677 21.79562512 -20 21 C-20 20.34 -20 19.68 -20 19 C-20.66 19 -21.32 19 -22 19 C-20.13749008 14.90247817 -17.46991368 11.70006269 -14.65625 8.21875 C-12.93754248 6.10905973 -12.93754248 6.10905973 -12.09765625 3.796875 C-11 2 -11 2 -8.65234375 1.171875 C-7.75644531 1.03265625 -6.86054688 0.8934375 -5.9375 0.75 C-4.58978516 0.52570313 -4.58978516 0.52570313 -3.21484375 0.296875 C-1 0 -1 0 0 0 Z " fill="#692133" transform="translate(446,322)"/>
<path d="M0 0 C0.80824219 0.10183594 1.61648438 0.20367187 2.44921875 0.30859375 C3.06410156 0.39238281 3.67898438 0.47617188 4.3125 0.5625 C3.6628125 1.26826172 3.6628125 1.26826172 3 1.98828125 C2.443125 2.61089844 1.88625 3.23351562 1.3125 3.875 C0.755625 4.48988281 0.19875 5.10476562 -0.375 5.73828125 C-1.97951498 7.59381335 -1.97951498 7.59381335 -1.6875 10.5625 C-2.326875 10.830625 -2.96625 11.09875 -3.625 11.375 C-6.01881686 12.44917752 -6.01881686 12.44917752 -6.6875 15.5625 C-6.0275 15.8925 -5.3675 16.2225 -4.6875 16.5625 C-5.7703125 16.68625 -5.7703125 16.68625 -6.875 16.8125 C-11.52060434 18.05132782 -14.06342538 20.62638807 -16.6875 24.5625 C-18.792684 21.404724 -18.94039344 20.60852866 -18.875 17 C-18.86855469 16.21496094 -18.86210938 15.42992187 -18.85546875 14.62109375 C-18.6875 12.5625 -18.6875 12.5625 -17.6875 10.5625 C-17.0275 10.5625 -16.3675 10.5625 -15.6875 10.5625 C-15.605 9.985 -15.5225 9.4075 -15.4375 8.8125 C-14.461518 5.88455399 -13.05238777 4.51005463 -10.6875 2.5625 C-9.6975 2.5625 -8.7075 2.5625 -7.6875 2.5625 C-7.6875 1.9025 -7.6875 1.2425 -7.6875 0.5625 C-4.59271121 -0.46909626 -3.16118607 -0.41232862 0 0 Z " fill="#42121E" transform="translate(562.6875,116.4375)"/>
<path d="M0 0 C5.29012124 4.40843437 10.18808428 9.07559794 15 14 C14 17 14 17 11.8125 18.8125 C9 20 9 20 5.6875 19.1875 C4.800625 18.795625 3.91375 18.40375 3 18 C3 17.01 3 16.02 3 15 C-0.3 15 -3.6 15 -7 15 C-6.72694671 8.44672101 -4.18788859 4.93069452 0 0 Z " fill="#581A29" transform="translate(201,398)"/>
<path d="M0 0 C-0.7425 0.5775 -1.485 1.155 -2.25 1.75 C-4.66087643 3.72253526 -6.84042701 5.76044282 -9 8 C-8.67 8.66 -8.34 9.32 -8 10 C-10 12 -12 14 -14 16 C-14.66 16 -15.32 16 -16 16 C-18.42798296 18.20035956 -20.17384779 20.26077169 -22 23 C-24.23774069 18.65615043 -24.09652257 15.72348183 -23 11 C-20.46004401 5.21454468 -15.55441848 1.27720924 -10 -1.5 C-6.18988793 -2.13501868 -3.59720149 -1.29499254 0 0 Z " fill="#3E101C" transform="translate(543,142)"/>
<path d="M0 0 C0.66 0.33 1.32 0.66 2 1 C1.360625 1.9075 0.72125 2.815 0.0625 3.75 C-1.68661915 6.50618775 -2.40702707 7.93630652 -3 11 C-3.37125 11.845625 -3.7425 12.69125 -4.125 13.5625 C-5.31456447 16.08657081 -5.31456447 16.08657081 -4 19 C-5.546875 21.3046875 -5.546875 21.3046875 -7.75 23.875 C-9.96042921 26.47503724 -11.90923351 28.83778861 -13.578125 31.8203125 C-14.04734375 32.53960937 -14.5165625 33.25890625 -15 34 C-15.99 34 -16.98 34 -18 34 C-17.96653311 25.98467942 -15.84562314 21.28517166 -11 15 C-10.34 14.01 -9.68 13.02 -9 12 C-11.31 13.98 -13.62 15.96 -16 18 C-14.81452562 13.2581025 -12.51994166 11.14273073 -9.125 7.875 C-8.58230469 7.33746094 -8.03960937 6.79992187 -7.48046875 6.24609375 C-5.08750766 3.89993874 -2.79523221 1.86348814 0 0 Z " fill="#1D050A" transform="translate(341,379)"/>
<path d="M0 0 C4.91725446 2.45862723 8.44055466 8.30768355 11 13 C9.35 14.98 7.7 16.96 6 19 C2.37386801 18.43040847 0.74482259 17.07625466 -1.75 14.4375 C-2.36359375 13.79683594 -2.9771875 13.15617187 -3.609375 12.49609375 C-4.06828125 12.00238281 -4.5271875 11.50867188 -5 11 C-3.92509625 8.76139611 -2.919375 6.89766826 -1.375 4.9375 C0.2893735 2.9882168 0.2893735 2.9882168 0 0 Z " fill="#852C44" transform="translate(301,312)"/>
<path d="M0 0 C0.70125 0.28875 1.4025 0.5775 2.125 0.875 C1.56771087 4.21873475 0.77326111 6.90812999 -0.875 9.875 C-0.215 10.535 0.445 11.195 1.125 11.875 C1.375 14.875 1.375 14.875 1.125 17.875 C-0.875 19.875 -0.875 19.875 -3.5 20 C-4.28375 19.95875 -5.0675 19.9175 -5.875 19.875 C-6.5625 18.25 -6.5625 18.25 -6.875 15.875 C-5.4375 12.625 -5.4375 12.625 -3.875 9.875 C-4.803125 10.865 -4.803125 10.865 -5.75 11.875 C-7.875 13.875 -7.875 13.875 -9.875 13.875 C-9.71 13.111875 -9.545 12.34875 -9.375 11.5625 C-8.78354604 8.83903764 -8.78354604 8.83903764 -8.875 5.875 C-6.48843181 2.4304686 -4.31701489 -0.1876963 0 0 Z M-15.875 11.875 C-14.885 12.37 -14.885 12.37 -13.875 12.875 C-14.865 13.37 -14.865 13.37 -15.875 13.875 C-15.875 13.215 -15.875 12.555 -15.875 11.875 Z " fill="#641E2F" transform="translate(586.875,69.125)"/>
<path d="M0 0 C5.94 2.475 5.94 2.475 12 5 C12 8.63 12 12.26 12 16 C8.17696167 15.23539233 5.61606762 14.52385218 2.1875 12.9375 C1.39730469 12.57527344 0.60710937 12.21304688 -0.20703125 11.83984375 C-0.79871094 11.56269531 -1.39039063 11.28554687 -2 11 C-1.34 10.67 -0.68 10.34 0 10 C0 6.7 0 3.4 0 0 Z " fill="#5E1C2C" transform="translate(377,195)"/>
<path d="M0 0 C-0.27322591 3.82516278 -1.05415084 6.09307176 -3 9.4375 C-6 12 -6 12 -8.33203125 12.15234375 C-10.6045307 11.89825326 -12.77736156 11.53265845 -15 11 C-15 10.34 -15 9.68 -15 9 C-15.66 8.67 -16.32 8.34 -17 8 C-6.81093394 -1.18451025 -6.81093394 -1.18451025 0 0 Z " fill="#380E18" transform="translate(441,332)"/>
<path d="M0 0 C2.86724686 0.57344937 3.8614515 0.8614515 6 3 C6.56881408 7.95680841 6.78681343 9.92094158 3.8125 14 C0.80512535 16.13857753 -0.41151779 16.51264032 -4 16 C-2.66666667 10.66666667 -1.33333333 5.33333333 0 0 Z " fill="#320C15" transform="translate(326,454)"/>
<path d="M0 0 C0.66 0 1.32 0 2 0 C0.49359964 3.83447364 -1.83675586 5.46940469 -5 8 C-5.2371875 8.61359375 -5.474375 9.2271875 -5.71875 9.859375 C-7.66877815 13.11734885 -10.75418275 14.49021957 -14 16.25 C-14.64195312 16.61351562 -15.28390625 16.97703125 -15.9453125 17.3515625 C-20.70453477 20 -20.70453477 20 -23 20 C-21.45756243 16.06319713 -19.00214034 14.06320347 -15.75 11.4375 C-14.35007813 10.29087891 -14.35007813 10.29087891 -12.921875 9.12109375 C-10.05161369 7.03746823 -7.17841987 5.55349735 -4 4 C-2.64802142 2.68557638 -1.30973998 1.3565164 0 0 Z " fill="#4D1623" transform="translate(245,307)"/>
<path d="M0 0 C0 11.4379562 0 11.4379562 -2.8125 15.6875 C-3.33457031 16.49574219 -3.85664063 17.30398438 -4.39453125 18.13671875 C-4.92433594 18.75160156 -5.45414062 19.36648438 -6 20 C-6.99 20 -7.98 20 -9 20 C-8.96328787 11.04224067 -6.23384663 6.23384663 0 0 Z " fill="#40111D" transform="translate(332,393)"/>
<path d="M0 0 C0.99 0.33 1.98 0.66 3 1 C2.25 7.75 2.25 7.75 0 10 C-0.33 9.34 -0.66 8.68 -1 8 C-5.92784505 8.417313 -7.9777145 10.54985927 -11.3125 14.0625 C-12.19550781 14.98160156 -13.07851563 15.90070313 -13.98828125 16.84765625 C-14.98408203 17.91306641 -14.98408203 17.91306641 -16 19 C-16.66 18.67 -17.32 18.34 -18 18 C-12.35140562 8.74096386 -12.35140562 8.74096386 -7 6 C-5.1749303 4.40963993 -3.40324375 2.77683795 -1.6484375 1.109375 C-1.10445312 0.74328125 -0.56046875 0.3771875 0 0 Z " fill="#882D45" transform="translate(589,62)"/>
<path d="M0 0 C2.125 0.375 2.125 0.375 4 1 C3.2575 1.4125 2.515 1.825 1.75 2.25 C-0.90171685 3.93745618 -2.86674014 5.70872089 -5 8 C-4.67 8.66 -4.34 9.32 -4 10 C-6 12 -8 14 -10 16 C-10.66 16 -11.32 16 -12 16 C-14.42798296 18.20035956 -16.17384779 20.26077169 -18 23 C-18.9375 20.4375 -18.9375 20.4375 -19 17 C-15.32727323 11.60411032 -9.22466624 7.66516863 -4.13671875 3.69921875 C-1.95277482 2.02832036 -1.95277482 2.02832036 0 0 Z " fill="#25080F" transform="translate(539,142)"/>
<path d="M0 0 C1.32 1.32 2.64 2.64 4 4 C1.69 5.32 -0.62 6.64 -3 8 C0.70109266 12.42325709 4.48896387 16.55557838 8.6796875 20.51953125 C10 22 10 22 10 24 C9.34 24 8.68 24 8 24 C6.66015625 22.63671875 6.66015625 22.63671875 5.0625 20.6875 C0.36032633 15.13853658 -4.81944144 10.09624567 -10 5 C-9.40703125 4.87753906 -8.8140625 4.75507813 -8.203125 4.62890625 C-5.03443746 3.72436956 -2.67380616 1.88381797 0 0 Z " fill="#A33B5B" transform="translate(216,413)"/>
<path d="M0 0 C2.51850179 1.2592509 4.1230616 2.92196105 6 5 C4.88625 5.5878125 4.88625 5.5878125 3.75 6.1875 C0.80216929 8.13038842 -0.93098611 10.16468467 -3 13 C-7 8.63636364 -7 8.63636364 -7 5.9375 C-5.40714935 2.85135186 -3.73156551 0 0 0 Z " fill="#7C293F" transform="translate(549,114)"/>
<path d="M0 0 C3.63 0 7.26 0 11 0 C10.01 0.33 9.02 0.66 8 1 C7.37907282 2.81296615 7.37907282 2.81296615 7 5 C6.3530635 6.6744239 5.69040574 8.34302621 5 10 C2.69 9.67 0.38 9.34 -2 9 C-2 5.61976483 -1.12544378 3.16531063 0 0 Z " fill="#77253A" transform="translate(348,189)"/>
<path d="M0 0 C1.98 1.65 3.96 3.3 6 5 C4.6190998 8.33717549 3.1798762 10.22301036 0 12 C-2.1875 11.8125 -2.1875 11.8125 -4 11 C-4.33 10.34 -4.66 9.68 -5 9 C-2.6 2.6 -2.6 2.6 0 0 Z " fill="#3A101B" transform="translate(201,398)"/>
<path d="M0 0 C0 1.65 0 3.3 0 5 C-0.7115625 5.25007813 -1.423125 5.50015625 -2.15625 5.7578125 C-5.29808242 7.13020633 -7.75178061 8.82927489 -10.5 10.875 C-11.87671875 11.89207031 -11.87671875 11.89207031 -13.28125 12.9296875 C-15.88737136 14.91423394 -18.45212437 16.94139034 -21 19 C-21.66 18.67 -22.32 18.34 -23 18 C-5.72 0 -5.72 0 0 0 Z " fill="#7B263B" transform="translate(264,287)"/>
<path d="M0 0 C0.99 0 1.98 0 3 0 C2.690625 0.99 2.38125 1.98 2.0625 3 C1.24461442 5.78876265 0.8163497 8.41967116 0.5625 11.3125 C0.376875 12.529375 0.19125 13.74625 0 15 C-0.99 15.66 -1.98 16.32 -3 17 C-5.66950053 9.82571732 -5.66950053 9.82571732 -5 6 C-3.53153395 3.62221459 -2.01294171 2.01294171 0 0 Z " fill="#6C2133" transform="translate(391,216)"/>
<path d="M0 0 C1.32 0.66 2.64 1.32 4 2 C2.52278578 5.45201639 0.56205999 7.64961936 -2.125 10.25 C-2.84945312 10.95640625 -3.57390625 11.6628125 -4.3203125 12.390625 C-4.87460937 12.92171875 -5.42890625 13.4528125 -6 14 C-6.66 13.67 -7.32 13.34 -8 13 C-7.01 11.35 -6.02 9.7 -5 8 C-5.66 7.67 -6.32 7.34 -7 7 C-4.69 4.69 -2.38 2.38 0 0 Z " fill="#23070D" transform="translate(566,118)"/>
<path d="M0 0 C3.465 1.485 3.465 1.485 7 3 C7 6.63 7 10.26 7 14 C2 13 2 13 0 11 C0.66 11 1.32 11 2 11 C2 8.03 2 5.06 2 2 C1.34 2 0.68 2 0 2 C0 1.34 0 0.68 0 0 Z " fill="#77263B" transform="translate(382,197)"/>
<path d="M0 0 C3.24732932 1.62366466 3.70155136 4.75387839 5 8 C2.75 10.5625 2.75 10.5625 0 13 C-2.3125 12.8125 -2.3125 12.8125 -4 12 C-4 7.24339508 -2.89850996 6.53255901 0 3 C0 2.01 0 1.02 0 0 Z " fill="#621E30" transform="translate(301,312)"/>
<path d="M0 0 C-0.75 5.75 -0.75 5.75 -3 8 C-3 7.01 -3 6.02 -3 5 C-9.99818687 5.90198853 -13.42174559 7.60000761 -18 13 C-18.66 12.67 -19.32 12.34 -20 12 C-14.70157734 5.35421213 -9.16819987 0 0 0 Z " fill="#501726" transform="translate(444,327)"/>
<path d="M0 0 C0.33 0.66 0.66 1.32 1 2 C0.67 2.99 0.34 3.98 0 5 C1.27875 4.814375 2.5575 4.62875 3.875 4.4375 C7.75 3.875 7.75 3.875 10 5 C10 5.66 10 6.32 10 7 C8.37373596 8.38232443 6.7074998 9.71937515 5 11 C5 10.01 5 9.02 5 8 C2.03 8 -0.94 8 -4 8 C-2.87548273 5.0280615 -1.77706209 2.66559313 0 0 Z " fill="#78273D" transform="translate(194,408)"/>
<path d="M0 0 C0.33 0.66 0.66 1.32 1 2 C-3.90224394 7.76209966 -9.05742538 13.18391529 -14.4375 18.5 C-15.16904297 19.22703125 -15.90058594 19.9540625 -16.65429688 20.703125 C-18.43389824 22.47109499 -20.21580918 24.23666378 -22 26 C-22 23 -22 23 -19.40234375 20.14453125 C-18.25398116 19.02704674 -17.09861101 17.91673253 -15.9375 16.8125 C-14.74029753 15.64777285 -13.54497292 14.48111228 -12.3515625 13.3125 C-11.4838623 12.46365234 -11.4838623 12.46365234 -10.59863281 11.59765625 C-8.01347587 9.01407852 -5.62842476 6.27715028 -3.26953125 3.48828125 C-2 2 -2 2 0 0 Z " fill="#C45481" transform="translate(452,201)"/>
<path d="M0 0 C1.32 0.33 2.64 0.66 4 1 C4.125 3.875 4.125 3.875 4 7 C2 9 2 9 -0.625 9.125 C-1.40875 9.08375 -2.1925 9.0425 -3 9 C-3.75 7.3125 -3.75 7.3125 -4 5 C-2.0625 2.25 -2.0625 2.25 0 0 Z " fill="#310C15" transform="translate(584,80)"/>
<path d="M0 0 C1.32 0.99 2.64 1.98 4 3 C3 6 3 6 0.8125 7.8125 C-2 9 -2 9 -5.3125 8.1875 C-6.199375 7.795625 -7.08625 7.40375 -8 7 C-7.236875 6.401875 -6.47375 5.80375 -5.6875 5.1875 C-3.6516425 3.53040668 -1.8021721 1.89702326 0 0 Z " fill="#7C273C" transform="translate(212,409)"/>
<path d="M0 0 C0.66 0.33 1.32 0.66 2 1 C0.989375 1.825 -0.02125 2.65 -1.0625 3.5 C-4.52174271 6.44805907 -7.43266119 9.66911509 -10.32421875 13.16796875 C-12.0655846 15.07169971 -13.8941714 16.51812062 -16 18 C-15.14840837 13.40338279 -12.38681902 11.01459629 -9.125 7.875 C-8.58230469 7.33746094 -8.03960937 6.79992187 -7.48046875 6.24609375 C-5.08750766 3.89993874 -2.79523221 1.86348814 0 0 Z " fill="#350E17" transform="translate(341,379)"/>
<path d="M0 0 C0.33 1.32 0.66 2.64 1 4 C-2.2830098 5.6415049 -5.42545033 4.51888624 -9 4 C-9 3.34 -9 2.68 -9 2 C-9.66 1.67 -10.32 1.34 -11 1 C-6.8204355 -1.78637633 -4.85331323 -0.79562512 0 0 Z " fill="#140306" transform="translate(435,339)"/>
<path d="M0 0 C1.65 0 3.3 0 5 0 C4.01 3.63 3.02 7.26 2 11 C1.01 10.67 0.02 10.34 -1 10 C-2.37407134 7.14615953 -1.95284958 5.8365452 -1.0625 2.75 C-0.711875 1.8425 -0.36125 0.935 0 0 Z " fill="#5B1B2C" transform="translate(319,451)"/>
<path d="M0 0 C-2.55614243 5.75764755 -7.69017314 10.65677568 -13 14 C-13.66 14 -14.32 14 -15 14 C-13.41102996 9.95190965 -10.69374052 7.62436647 -7.5 4.75 C-7.00113281 4.29109375 -6.50226563 3.8321875 -5.98828125 3.359375 C-2.25897507 0 -2.25897507 0 0 0 Z " fill="#5F1D2E" transform="translate(254,303)"/>
<path d="M0 0 C0.66 0.33 1.32 0.66 2 1 C-0.71262064 3.82886943 -3.44769624 6.63496974 -6.1875 9.4375 C-6.95642578 10.23994141 -7.72535156 11.04238281 -8.51757812 11.86914062 C-9.26845703 12.63291016 -10.01933594 13.39667969 -10.79296875 14.18359375 C-11.4789917 14.89056396 -12.16501465 15.59753418 -12.87182617 16.32592773 C-15.27615511 18.21723019 -16.9929163 18.64852268 -20 19 C-17.14959264 16.06051741 -14.22717719 13.29866633 -11.125 10.625 C-7.23142339 7.25698221 -3.58825919 3.68917898 0 0 Z " fill="#C4527D" transform="translate(419,189)"/>
<path d="M0 0 C0.33 3.3 0.66 6.6 1 10 C-0.65 10.33 -2.3 10.66 -4 11 C-4.33 8.36 -4.66 5.72 -5 3 C-1.125 0 -1.125 0 0 0 Z " fill="#5B1B2B" transform="translate(189,123)"/>
<path d="M0 0 C0.66 0 1.32 0 2 0 C0.5140084 4.59306496 -1.85014682 7.43569245 -5 11 C-5.99 10.34 -6.98 9.68 -8 9 C-6.71520959 7.49410612 -5.42195918 5.99542625 -4.125 4.5 C-3.04605469 3.24703125 -3.04605469 3.24703125 -1.9453125 1.96875 C-1.30335938 1.3190625 -0.66140625 0.669375 0 0 Z " fill="#75263C" transform="translate(260,293)"/>
<path d="M0 0 C2 1 2 1 2.9375 3.25 C3 6 3 6 0.5625 8.8125 C-0.283125 9.534375 -1.12875 10.25625 -2 11 C-3.32 10.34 -4.64 9.68 -6 9 C-4.7934375 7.88625 -4.7934375 7.88625 -3.5625 6.75 C-1.23011409 4.24695171 -0.36465606 3.2819045 0 0 Z " fill="#732439" transform="translate(305,317)"/>
<path d="M0 0 C1.3303125 0.4021875 1.3303125 0.4021875 2.6875 0.8125 C1.945 1.369375 1.2025 1.92625 0.4375 2.5 C-2.22957995 4.74277178 -4.22806232 7.03324975 -6.3125 9.8125 C-6.9725 8.1625 -7.6325 6.5125 -8.3125 4.8125 C-4.12788462 -0.23365385 -4.12788462 -0.23365385 0 0 Z " fill="#661E30" transform="translate(552.3125,117.1875)"/>
<path d="M0 0 C3.3 0 6.6 0 10 0 C9.625 2.4375 9.625 2.4375 9 5 C8.01 5.495 8.01 5.495 7 6 C6.67 5.34 6.34 4.68 6 4 C3.6859378 3.26924352 1.35171131 2.59861742 -1 2 C-0.67 1.34 -0.34 0.68 0 0 Z " fill="#280810" transform="translate(429,336)"/>
<path d="M0 0 C0.77772405 2.33317216 1.42415568 4.61435923 2 7 C0.68 7 -0.64 7 -2 7 C-3.62514468 8.45833358 -3.62514468 8.45833358 -5 10 C-5.66 10 -6.32 10 -7 10 C-5.6062718 5.56541027 -3.39417765 3.12621626 0 0 Z " fill="#4C1523" transform="translate(584,73)"/>
<path d="M0 0 C0.66 0.33 1.32 0.66 2 1 C0.71700242 3.86207152 -0.530636 6.0245088 -3 8 C-3.99 8 -4.98 8 -6 8 C-6 5 -6 5 -4.6875 3.61328125 C-3.125 2.40885417 -1.5625 1.20442708 0 0 Z " fill="#671F31" transform="translate(210,407)"/>
<path d="M0 0 C0.66 0.33 1.32 0.66 2 1 C-1.3 4.3 -4.6 7.6 -8 11 C-8.99 10.67 -9.98 10.34 -11 10 C-9.68 9.34 -8.36 8.68 -7 8 C-7 7.34 -7 6.68 -7 6 C-5.46875 4.4921875 -5.46875 4.4921875 -3.5 2.875 C-2.8503125 2.33617187 -2.200625 1.79734375 -1.53125 1.2421875 C-0.77328125 0.62730469 -0.77328125 0.62730469 0 0 Z " fill="#581929" transform="translate(318,296)"/>
<path d="M0 0 C0.66 0.33 1.32 0.66 2 1 C2.3125 3.1875 2.3125 3.1875 2 6 C-0.375 8.8125 -0.375 8.8125 -3 11 C-3.66 11 -4.32 11 -5 11 C-3.95728026 8.7541421 -2.91350633 6.89021957 -1.375 4.9375 C0.2893735 2.9882168 0.2893735 2.9882168 0 0 Z " fill="#541928" transform="translate(301,312)"/>
<path d="M0 0 C0.99 0 1.98 0 3 0 C2.5020163 3.73487777 2.12508244 5.81237635 0 9 C-0.99 8.67 -1.98 8.34 -3 8 C-2.01 5.36 -1.02 2.72 0 0 Z " fill="#7A263B" transform="translate(348,189)"/>
<path d="M0 0 C0.99 0.33 1.98 0.66 3 1 C0.03 3.97 -2.94 6.94 -6 10 C-6 6.41087588 -5.33563446 5.89142971 -3 3.3125 C-2.443125 2.68988281 -1.88625 2.06726563 -1.3125 1.42578125 C-0.879375 0.95527344 -0.44625 0.48476563 0 0 Z " fill="#A13C5C" transform="translate(309,468)"/>
<path d="M0 0 C0.66 0.33 1.32 0.66 2 1 C0.6190998 4.33717549 -0.8201238 6.22301036 -4 8 C-6.1328125 7.57421875 -6.1328125 7.57421875 -8 7 C-7.50628906 6.66226562 -7.01257813 6.32453125 -6.50390625 5.9765625 C-5.86324219 5.53054688 -5.22257813 5.08453125 -4.5625 4.625 C-3.92441406 4.18414062 -3.28632813 3.74328125 -2.62890625 3.2890625 C-0.86259072 2.07839147 -0.86259072 2.07839147 0 0 Z " fill="#471320" transform="translate(205,402)"/>
<path d="M0 0 C0.66 0.33 1.32 0.66 2 1 C-1.3 4.3 -4.6 7.6 -8 11 C-8.66 10.67 -9.32 10.34 -10 10 C-6.66666667 6.66666667 -3.33333333 3.33333333 0 0 Z " fill="#78273D" transform="translate(581,70)"/>
<path d="M0 0 C-0.33 2.31 -0.66 4.62 -1 7 C-1.66 6.34 -2.32 5.68 -3 5 C-4.31747324 4.30251417 -5.64914193 3.63040043 -7 3 C-3.375 0 -3.375 0 0 0 Z " fill="#77253A" transform="translate(591,65)"/>
<path d="M0 0 C0 3.77910478 -0.99703962 4.46106101 -3.5 7.1875 C-4.1496875 7.90292969 -4.799375 8.61835938 -5.46875 9.35546875 C-5.9740625 9.89816406 -6.479375 10.44085938 -7 11 C-7.99 10.67 -8.98 10.34 -10 10 C-9.38125 9.7525 -8.7625 9.505 -8.125 9.25 C-5.57496075 7.74997691 -5.23777652 6.6302751 -4 4 C-2.70529025 2.62913085 -1.37849103 1.28659163 0 0 Z " fill="#652134" transform="translate(484,180)"/>
<path d="M0 0 C0.66 0.33 1.32 0.66 2 1 C-0.97 3.97 -3.94 6.94 -7 10 C-7 5.69032084 -4.83274712 4.10253255 -2 1 C-1.34 0.67 -0.68 0.34 0 0 Z " fill="#AD4163" transform="translate(519,59)"/>
<path d="M0 0 C0.99 0.66 1.98 1.32 3 2 C2.67 2.66 2.34 3.32 2 4 C-1.0625 4.625 -1.0625 4.625 -4 5 C-2.68 3.35 -1.36 1.7 0 0 Z M-9 5 C-7.02 5.99 -7.02 5.99 -5 7 C-5.99 7 -6.98 7 -8 7 C-8.33 6.34 -8.66 5.68 -9 5 Z " fill="#AA3E5F" transform="translate(589,57)"/>
<path d="M0 0 C0 4.38968456 -2.12805101 5.76905739 -5 9 C-5.99 8.67 -6.98 8.34 -8 8 C-5.33333333 5.33333333 -2.66666667 2.66666667 0 0 Z " fill="#7B2B43" transform="translate(468,197)"/>
<path d="M0 0 C0.66 0.66 1.32 1.32 2 2 C-1.465 4.97 -1.465 4.97 -5 8 C-3.95206337 3.80825346 -3.08236365 2.78407039 0 0 Z " fill="#521928" transform="translate(330,389)"/>
<path d="M0 0 C0 0.33 0 0.66 0 1 C-1.5778125 1.37125 -1.5778125 1.37125 -3.1875 1.75 C-6.8133541 2.76700786 -9.19910772 4.45373429 -12 7 C-9.69656113 0.26687101 -6.85869086 -0.25881852 0 0 Z " fill="#BB476D" transform="translate(181,307)"/>
<path d="M0 0 C0.99 0 1.98 0 3 0 C2.40072174 3.35595828 1.15377564 5.37801226 -1 8 C-1.66 7.67 -2.32 7.34 -3 7 C-2.01 4.69 -1.02 2.38 0 0 Z " fill="#5E1B2C" transform="translate(353,190)"/>
<path d="M0 0 C0.33 0 0.66 0 1 0 C1 1.98 1 3.96 1 6 C0.01 6.33 -0.98 6.66 -2 7 C-2.125 4.625 -2.125 4.625 -2 2 C-1.34 1.34 -0.68 0.68 0 0 Z " fill="#531726" transform="translate(388,220)"/>
<path d="M0 0 C0.33 0.99 0.66 1.98 1 3 C-0.65 4.32 -2.3 5.64 -4 7 C-4.66 6.67 -5.32 6.34 -6 6 C-4.02 4.02 -2.04 2.04 0 0 Z " fill="#9E3E60" transform="translate(358,246)"/>
<path d="M0 0 C0.33 0.66 0.66 1.32 1 2 C-0.65 3.98 -2.3 5.96 -4 8 C-4.33 7.01 -4.66 6.02 -5 5 C-3.35 3.35 -1.7 1.7 0 0 Z " fill="#BA466B" transform="translate(452,201)"/>
</svg>
